<?xml version="1.0" standalone="no"?>
<!DOCTYPE svg PUBLIC "-//W3C//DTD SVG 20010904//EN"
 "http://www.w3.org/TR/2001/REC-SVG-20010904/DTD/svg10.dtd">
<svg version="1.0" xmlns="http://www.w3.org/2000/svg"
 width="1062.000000pt" height="1062.000000pt" viewBox="0 0 1062.000000 1062.000000"
 preserveAspectRatio="xMidYMid meet">
<metadata>
Created by potrace 1.14, written by Peter Selinger 2001-2017
</metadata>
<g transform="translate(0.000000,1062.000000) scale(0.100000,-0.100000)"
fill="#000000" stroke="none">
<path d="M1816 10149 c5 -9 7 -18 18 -89 3 -19 8 -46 11 -60 3 -14 8 -45 10
-70 3 -25 9 -54 12 -65 3 -11 7 -31 8 -45 2 -14 8 -54 14 -90 7 -36 14 -78 16
-95 7 -45 14 -87 20 -115 3 -14 7 -38 10 -55 5 -35 15 -101 20 -130 3 -19 8
-50 20 -120 3 -16 8 -50 11 -75 3 -25 8 -52 11 -60 6 -15 8 -28 16 -90 15
-113 19 -136 24 -150 3 -8 7 -28 8 -45 2 -16 19 -124 40 -240 20 -115 38 -226
41 -245 2 -19 9 -62 15 -95 6 -33 12 -69 14 -80 9 -57 16 -102 21 -124 3 -13
7 -46 10 -75 3 -28 8 -55 11 -59 3 -5 7 -23 9 -40 3 -32 20 -140 48 -297 8
-47 17 -103 21 -125 3 -22 12 -80 21 -130 9 -49 17 -101 18 -115 2 -14 6 -36
9 -50 7 -27 17 -86 22 -135 2 -16 6 -43 9 -60 4 -16 9 -46 12 -65 2 -19 7 -48
10 -63 5 -25 3 -27 -18 -23 -21 4 -72 20 -108 33 -8 3 -19 7 -25 9 -5 1 -140
45 -299 98 -158 53 -295 96 -302 96 -8 0 -14 5 -14 12 0 6 -3 9 -6 5 -3 -3
-43 7 -88 22 -44 15 -133 45 -196 65 -63 21 -122 41 -130 45 -9 5 -31 12 -50
17 -43 10 -42 9 -60 17 -18 8 -621 208 -635 211 -5 1 -89 28 -185 60 -253 85
-262 87 -253 73 4 -7 8 -16 9 -22 1 -5 13 -34 28 -64 14 -30 26 -60 26 -67 0
-6 7 -17 15 -24 9 -7 13 -15 11 -18 -3 -2 0 -14 6 -26 7 -11 13 -23 13 -26 1
-3 8 -18 15 -35 7 -16 14 -32 15 -35 1 -3 14 -32 29 -65 15 -33 43 -96 62
-140 19 -44 38 -88 44 -97 5 -10 10 -25 10 -33 0 -8 5 -15 10 -15 6 0 10 -6
10 -14 0 -12 35 -94 95 -221 8 -16 30 -66 48 -110 19 -44 44 -101 56 -127 11
-27 31 -69 42 -95 35 -79 100 -226 112 -253 5 -14 10 -28 9 -32 -1 -5 3 -8 8
-8 5 0 9 -3 8 -7 -2 -10 3 -20 85 -203 80 -179 100 -224 102 -230 1 -3 8 -21
17 -40 9 -19 32 -73 53 -120 21 -47 46 -105 57 -130 49 -109 61 -137 73 -165
7 -16 22 -51 34 -77 11 -27 31 -69 42 -95 12 -27 28 -64 37 -83 9 -19 15 -38
14 -42 -1 -5 3 -8 8 -8 5 0 9 -3 8 -8 -1 -4 4 -18 9 -32 24 -55 51 -117 71
-160 11 -25 53 -119 92 -210 39 -91 80 -183 90 -205 34 -76 92 -210 127 -290
19 -44 38 -89 43 -100 100 -222 127 -285 122 -290 -3 -3 0 -5 6 -5 7 0 12 -8
12 -18 0 -10 4 -22 8 -28 5 -5 16 -27 25 -49 8 -22 31 -75 51 -118 20 -42 36
-79 36 -82 0 -3 13 -32 29 -65 16 -33 27 -60 25 -60 -2 0 5 -16 16 -35 11 -20
20 -42 20 -50 0 -8 4 -15 8 -15 5 0 9 -6 9 -12 0 -7 14 -42 31 -78 16 -36 44
-99 62 -140 18 -41 42 -97 55 -125 12 -27 35 -80 51 -118 28 -65 46 -90 95
-132 54 -47 184 -160 189 -165 3 -3 39 -34 80 -70 41 -36 77 -67 80 -70 3 -3
39 -34 80 -70 41 -35 86 -75 100 -88 14 -14 42 -38 64 -56 21 -17 48 -40 60
-51 12 -11 55 -49 96 -84 41 -36 89 -77 105 -92 32 -30 46 -43 141 -124 32
-27 68 -59 80 -70 12 -11 48 -42 80 -70 76 -65 129 -112 173 -153 20 -18 64
-56 99 -84 34 -28 62 -55 62 -60 0 -4 7 -8 16 -8 8 0 12 -5 9 -10 -3 -6 -2
-10 4 -10 5 0 21 -10 34 -23 26 -23 31 -27 157 -137 41 -35 86 -75 100 -88 14
-14 42 -38 64 -56 21 -17 51 -42 66 -56 86 -80 110 -100 120 -100 6 0 8 -4 5
-10 -3 -5 -2 -10 4 -10 5 0 27 -15 48 -34 75 -68 97 -85 102 -80 3 2 -1 10 -7
16 -7 7 -12 20 -12 30 0 10 -4 18 -10 18 -5 0 -10 7 -10 15 0 8 -12 41 -28 72
-15 32 -34 77 -41 101 -8 23 -18 42 -23 42 -4 0 -7 3 -6 8 1 4 -6 24 -15 46
-9 21 -17 40 -17 42 0 3 -18 44 -71 160 -11 22 -19 43 -19 47 0 4 -14 37 -31
74 -17 38 -37 82 -44 98 -13 29 -131 303 -162 375 -8 19 -27 61 -41 94 -15 32
-27 62 -28 65 0 3 -9 24 -19 46 -10 22 -19 42 -20 45 -1 3 -8 19 -15 35 -7 17
-13 33 -12 37 1 5 -2 8 -6 8 -5 0 -9 6 -9 13 -1 9 -91 222 -167 392 -8 17 -24
55 -37 85 -12 30 -26 60 -31 66 -8 10 1 13 72 24 3 1 23 5 45 10 22 6 56 13
75 16 19 3 73 14 120 23 47 10 92 19 100 19 8 0 26 3 40 7 14 4 34 8 45 10 11
2 34 7 50 10 17 3 39 7 51 10 37 8 98 18 117 19 9 0 17 3 17 6 0 3 10 6 23 7
12 1 33 4 47 7 13 3 42 8 64 12 22 3 43 7 46 9 3 2 21 6 40 9 19 3 46 8 60 11
14 4 34 8 45 10 83 14 109 19 182 34 l82 18 15 -36 c8 -20 22 -54 32 -76 10
-22 17 -43 16 -47 -1 -5 2 -8 8 -8 5 0 10 -5 10 -12 0 -6 8 -30 19 -52 10 -23
32 -72 49 -111 17 -38 43 -97 57 -130 15 -33 34 -76 43 -95 8 -19 29 -64 45
-100 l30 -65 18 40 c29 64 49 115 48 121 0 4 3 10 8 13 5 3 22 35 37 71 16 36
49 108 73 160 25 52 51 111 60 130 9 19 33 72 54 117 l38 83 38 -6 c21 -3 41
-8 44 -10 4 -2 24 -6 45 -10 22 -3 71 -12 109 -21 63 -13 101 -20 215 -39 46
-8 65 -12 65 -14 0 -2 34 -9 70 -14 17 -2 41 -7 55 -10 14 -3 36 -8 50 -10 14
-3 35 -7 47 -10 11 -2 43 -8 70 -12 53 -9 61 -10 68 -14 7 -4 15 -5 68 -14 27
-4 59 -10 70 -12 25 -6 56 -12 90 -18 125 -24 231 -46 235 -50 4 -5 -14 -48
-98 -241 -26 -59 -33 -79 -32 -87 1 -5 -2 -8 -6 -8 -6 0 -33 -58 -37 -80 -1
-5 -15 -37 -59 -130 -11 -25 -21 -48 -21 -52 0 -3 -3 -10 -8 -14 -4 -4 -7 -16
-7 -26 0 -10 -5 -18 -10 -18 -6 0 -9 -3 -8 -7 1 -9 -11 -40 -52 -133 -16 -36
-59 -135 -96 -220 -36 -85 -76 -177 -89 -205 -12 -27 -32 -75 -45 -105 -12
-30 -28 -68 -35 -85 -8 -16 -20 -46 -28 -65 -8 -19 -29 -66 -47 -105 -18 -38
-33 -74 -34 -80 -1 -5 -4 -14 -8 -20 -3 -5 -25 -55 -48 -110 -23 -55 -53 -125
-67 -155 -50 -110 -51 -119 -4 -72 16 15 52 47 82 72 29 25 69 59 89 77 19 18
45 40 56 50 56 47 139 121 164 143 15 14 51 45 80 70 29 25 70 60 89 79 20 18
56 49 80 70 24 20 53 45 66 56 12 11 50 45 85 75 35 30 68 59 74 65 6 5 45 39
86 75 41 36 80 70 86 75 6 6 39 35 74 65 35 30 68 60 74 65 6 6 40 35 75 65
35 30 74 64 86 75 11 11 37 33 55 49 38 32 177 154 196 172 6 5 35 30 64 55
29 24 67 58 84 74 18 17 57 51 87 77 30 25 63 54 75 65 65 57 150 130 168 146
41 35 139 122 153 135 13 13 43 66 44 77 0 3 9 26 21 52 12 27 22 50 23 53 4
11 22 52 92 209 40 91 73 171 73 178 0 7 5 13 10 13 6 0 10 7 10 15 0 8 4 23
9 33 5 9 18 36 30 59 12 23 22 45 21 48 0 3 13 35 30 71 16 36 30 67 30 69 0
2 13 32 29 67 16 35 41 92 56 128 29 70 48 113 101 228 19 41 34 75 34 77 0 3
12 30 27 62 15 32 27 60 28 63 0 4 81 189 150 345 13 28 26 60 30 73 3 12 10
22 14 22 4 0 8 6 8 13 0 10 31 84 94 223 11 22 19 46 19 52 0 7 5 12 10 12 6
0 10 8 10 18 0 10 3 22 7 26 5 4 8 11 8 14 1 4 6 17 13 30 7 12 10 22 7 22 -4
0 2 12 13 27 11 16 20 31 21 36 3 28 15 57 22 57 5 0 9 6 9 14 0 7 16 49 36
92 20 43 44 97 53 119 27 60 121 274 143 325 11 25 33 72 48 105 15 33 30 70
34 83 4 12 12 22 17 22 6 0 8 4 4 9 -3 5 11 43 30 83 20 40 35 73 35 73 -1 0
12 31 29 68 17 38 31 75 31 83 0 8 5 14 10 14 6 0 10 5 10 11 0 11 88 217 100
234 3 6 13 26 20 45 8 19 31 72 52 118 21 46 38 85 38 87 0 3 13 33 29 67 15
35 43 97 61 138 18 41 44 100 57 130 14 30 41 91 60 135 19 43 39 85 45 92 6
7 8 13 5 13 -3 0 12 38 33 84 39 84 72 157 75 166 3 10 23 55 46 105 12 28 23
52 24 55 4 13 26 64 31 71 5 8 -41 -4 -131 -36 -27 -9 -55 -18 -62 -19 -7 -1
-16 -5 -19 -9 -4 -4 -13 -7 -20 -7 -7 0 -25 -5 -41 -12 -15 -6 -36 -13 -46
-15 -10 -1 -31 -10 -46 -18 -16 -8 -31 -12 -33 -9 -3 2 -18 -2 -34 -11 -16 -8
-34 -15 -40 -15 -6 0 -121 -37 -255 -81 -134 -45 -250 -82 -256 -82 -7 0 -13
-4 -13 -9 0 -4 -3 -7 -7 -7 -5 1 -10 0 -13 -1 -3 -1 -12 -3 -20 -5 -8 -1 -139
-44 -290 -95 -151 -50 -282 -93 -290 -95 -8 -2 -15 -4 -15 -5 0 -1 -9 -3 -20
-5 -10 -2 -28 -8 -40 -14 -22 -10 -359 -121 -384 -126 -9 -2 -18 -4 -21 -5 -3
-1 -8 -2 -12 -1 -5 0 -8 -3 -8 -9 0 -6 -3 -9 -7 -9 -5 1 -10 0 -13 -1 -3 -1
-12 -3 -20 -5 -45 -11 -61 -16 -125 -39 -95 -35 -95 -35 -88 22 6 50 11 77 13
77 1 0 3 14 5 30 5 42 18 121 30 185 3 14 7 41 10 60 3 19 8 46 10 60 2 14 7
41 10 60 3 19 7 46 10 60 3 14 7 41 10 60 3 19 10 60 15 90 5 30 12 71 15 90
3 19 10 60 15 90 5 30 12 73 15 95 6 41 11 66 18 100 3 11 8 40 11 65 3 25 8
54 10 65 2 11 7 40 10 65 7 51 14 85 16 85 1 0 3 14 5 30 3 30 4 40 31 195 8
47 17 101 20 120 3 19 19 112 35 206 15 95 31 187 33 205 3 19 7 43 9 54 3 11
8 40 11 65 3 25 9 59 12 75 4 17 7 40 7 53 1 12 3 22 7 22 3 0 5 12 6 28 1 26
9 82 19 132 3 14 7 39 10 57 3 28 9 62 31 183 2 14 9 54 14 90 6 36 13 76 16
90 2 14 7 41 10 60 3 19 7 46 9 60 2 14 11 66 20 115 25 140 27 167 11 158
-12 -7 -124 -105 -176 -153 -9 -8 -65 -58 -125 -110 -61 -52 -115 -99 -121
-105 -6 -5 -39 -35 -74 -65 -35 -30 -70 -62 -79 -71 -9 -8 -45 -40 -80 -70
-35 -30 -74 -63 -85 -74 -12 -11 -48 -42 -80 -70 -32 -27 -68 -59 -81 -70 -34
-31 -137 -121 -165 -145 -14 -12 -39 -34 -55 -48 -71 -63 -272 -239 -299 -262
-16 -14 -44 -38 -60 -54 -17 -15 -50 -44 -72 -63 -34 -28 -43 -43 -50 -81 -4
-26 -8 -51 -10 -57 -1 -5 -5 -28 -8 -49 -4 -21 -9 -48 -11 -60 -3 -12 -7 -37
-10 -56 -2 -19 -7 -46 -10 -60 -12 -49 -15 -67 -17 -103 -2 -20 -6 -37 -9 -37
-4 0 -7 -10 -7 -22 0 -20 -9 -74 -26 -164 -2 -12 -7 -37 -10 -55 -3 -19 -7
-43 -10 -54 -2 -11 -7 -40 -11 -65 -4 -25 -9 -54 -11 -65 -2 -11 -6 -33 -9
-50 -3 -16 -8 -41 -10 -55 -8 -36 -12 -59 -20 -110 -4 -25 -9 -54 -11 -65 -3
-11 -7 -35 -10 -54 -8 -48 -13 -70 -18 -89 -3 -9 -7 -37 -10 -62 -3 -25 -9
-56 -12 -70 -3 -14 -7 -36 -9 -50 -2 -14 -4 -25 -5 -25 -1 0 -3 -12 -5 -27 -2
-14 -10 -64 -19 -110 -8 -45 -18 -98 -21 -115 -10 -62 -15 -88 -25 -143 -6
-30 -13 -73 -16 -95 -3 -22 -7 -46 -10 -54 -2 -8 -7 -30 -10 -50 -2 -20 -7
-47 -10 -61 -15 -63 -17 -77 -18 -107 0 -18 -3 -33 -6 -33 -4 0 -7 -6 -8 -12
-5 -64 -11 -105 -15 -118 -7 -20 -31 -151 -31 -172 0 -10 -3 -18 -6 -18 -3 0
-6 -17 -8 -38 -2 -35 -9 -77 -12 -77 -1 0 -3 -16 -6 -35 -2 -19 -13 -81 -24
-138 -11 -56 -22 -117 -24 -135 -3 -17 -21 -117 -40 -221 -19 -104 -33 -193
-30 -197 2 -4 0 -10 -5 -13 -8 -5 -11 -27 -12 -78 0 -10 -5 -18 -10 -18 -6 0
-8 -4 -4 -9 3 -5 1 -31 -5 -57 -6 -26 -13 -59 -15 -73 -10 -66 -15 -92 -31
-176 -9 -49 -17 -98 -16 -107 0 -10 -3 -18 -7 -18 -5 0 -14 28 -21 63 -7 34
-15 67 -16 72 -6 20 -15 61 -20 85 -9 43 -44 193 -55 235 -6 22 -13 51 -16 65
-2 14 -8 41 -13 60 -5 19 -11 46 -13 60 -5 25 -40 177 -97 415 -16 66 -31 131
-34 145 -2 14 -14 68 -26 120 -22 91 -34 147 -46 200 -3 14 -14 63 -25 110
-11 47 -29 123 -40 170 -17 74 -24 102 -35 145 -3 13 -14 64 -20 95 -3 14 -7
33 -10 42 -5 15 -10 41 -18 83 -1 6 -5 16 -9 23 -5 6 -6 12 -4 12 3 0 1 17 -4
38 -5 20 -12 46 -14 57 -3 11 -16 70 -31 130 -14 61 -28 121 -31 135 -2 14
-13 59 -23 100 -10 41 -21 87 -24 103 -4 15 -8 39 -11 55 -3 15 -11 45 -17 67
-6 22 -13 49 -14 60 -2 11 -8 40 -14 65 -5 25 -13 56 -16 70 -3 14 -10 43 -16
65 -5 22 -12 48 -14 58 -2 10 -5 26 -8 35 -3 9 -7 28 -10 42 -2 14 -14 66 -25
115 -12 50 -24 99 -26 110 -9 41 -56 241 -61 260 -3 11 -7 29 -9 40 -8 44 -16
82 -27 120 -12 46 -16 67 -24 115 -3 19 -9 40 -12 45 -4 6 -7 15 -8 20 -5 31
-14 75 -23 110 -6 22 -10 40 -10 40 0 0 -2 7 -4 15 -3 8 -12 49 -21 90 -9 41
-27 125 -42 185 -14 61 -28 121 -30 135 -3 14 -9 41 -14 60 -5 19 -11 46 -13
60 -3 14 -20 86 -38 160 l-33 135 -13 -55 c-7 -30 -14 -66 -17 -80 -2 -14 -5
-25 -6 -25 -1 0 -3 -11 -5 -25 -2 -14 -6 -36 -9 -50 -3 -14 -8 -36 -11 -50 -4
-14 -9 -36 -12 -50 -3 -14 -6 -32 -7 -40 -1 -9 -5 -21 -10 -28 -4 -6 -5 -12
-2 -12 2 0 0 -15 -5 -32 -6 -18 -12 -44 -14 -58 -2 -14 -13 -69 -25 -124 -12
-54 -23 -106 -25 -115 -2 -9 -16 -70 -30 -136 -15 -66 -29 -131 -31 -145 -3
-14 -10 -43 -15 -65 -6 -22 -12 -51 -14 -65 -2 -14 -6 -35 -9 -47 -9 -35 -16
-65 -21 -95 -3 -16 -12 -56 -20 -90 -8 -35 -16 -74 -19 -88 -2 -14 -11 -55
-20 -91 -15 -66 -21 -94 -31 -146 -3 -16 -8 -36 -11 -45 -6 -20 -13 -53 -19
-93 -2 -16 -11 -59 -20 -95 -9 -35 -18 -74 -20 -85 -2 -11 -4 -20 -5 -20 -1 0
-4 -18 -6 -39 -3 -21 -9 -47 -15 -57 -5 -11 -8 -19 -5 -19 3 0 0 -15 -5 -32
-6 -18 -12 -49 -15 -68 -2 -19 -7 -43 -10 -52 -3 -9 -7 -25 -9 -35 -2 -10 -13
-63 -25 -118 -12 -55 -24 -109 -26 -120 -3 -11 -7 -31 -10 -44 -3 -12 -11 -51
-19 -85 -8 -33 -16 -74 -19 -91 -3 -16 -8 -43 -11 -60 -3 -16 -10 -43 -15 -60
-5 -16 -12 -43 -14 -59 -3 -16 -11 -55 -17 -85 -7 -31 -13 -63 -14 -71 -1 -8
-5 -22 -8 -30 -3 -8 -15 -62 -27 -120 -11 -58 -22 -114 -25 -125 -52 -229 -64
-289 -59 -296 3 -5 1 -9 -4 -9 -5 0 -9 -6 -9 -12 0 -7 -4 -26 -7 -43 -4 -16
-10 -43 -13 -60 -8 -46 -11 -60 -13 -60 -1 0 -3 -10 -6 -22 -2 -12 -15 -75
-30 -140 -14 -65 -27 -129 -30 -143 -3 -21 -11 -51 -19 -80 -1 -3 -5 -25 -10
-50 -5 -25 -9 -47 -10 -50 -1 -3 -4 -18 -8 -35 -4 -16 -10 -41 -12 -55 -30
-142 -29 -136 -55 -250 -11 -47 -22 -101 -25 -120 -3 -19 -11 -53 -16 -75 -6
-22 -13 -50 -15 -62 -6 -35 -15 -77 -18 -88 -2 -5 -7 -30 -11 -54 -9 -51 -21
-39 -28 29 -3 25 -7 52 -10 60 -3 8 -8 33 -11 55 -7 49 -14 92 -22 125 -3 14
-8 41 -10 60 -3 19 -7 45 -9 58 -15 71 -27 142 -28 165 -1 9 -4 17 -7 17 -4 0
-6 10 -5 23 1 12 0 27 -4 32 -3 6 -6 18 -7 28 -1 9 -2 18 -3 20 -1 1 -4 18 -6
37 -2 19 -6 46 -9 60 -4 14 -8 39 -11 55 -2 17 -7 42 -10 58 -3 15 -7 39 -10
55 -2 15 -7 38 -9 52 -3 14 -8 42 -11 64 -3 21 -7 41 -10 45 -2 4 -6 29 -10
56 -3 27 -8 58 -11 69 -3 12 -7 35 -9 51 -2 17 -4 30 -5 30 -2 0 -8 34 -14 75
-5 33 -8 52 -22 118 -3 15 -7 39 -10 55 -2 15 -6 39 -8 55 -3 15 -7 38 -10 52
-2 14 -7 41 -10 60 -3 19 -8 46 -11 60 -3 14 -9 50 -15 80 -5 30 -12 69 -15
85 -3 17 -12 68 -20 115 -8 47 -17 96 -20 110 -3 14 -8 39 -11 55 -2 17 -6 39
-8 50 -2 11 -9 49 -16 85 -7 36 -14 76 -15 90 -2 14 -4 25 -5 25 -2 0 -6 23
-14 80 -3 22 -8 51 -11 65 -3 14 -8 36 -11 50 -10 60 -16 97 -20 125 -3 17 -9
50 -14 75 -5 25 -12 60 -15 78 -12 73 -17 99 -25 130 -6 23 -5 32 3 32 9 0 9
2 1 8 -6 4 -17 41 -24 82 -7 41 -14 84 -16 95 -4 21 -10 51 -18 100 -3 17 -10
53 -16 80 -5 28 -12 66 -15 85 -2 19 -7 46 -10 60 -3 14 -7 39 -10 55 -3 17
-7 44 -11 60 -3 17 -7 48 -10 70 -3 22 -8 47 -11 55 -3 8 -7 29 -9 45 -10 91
-29 151 -54 175 -32 31 -97 88 -179 160 -35 30 -73 64 -86 75 -12 11 -48 43
-80 70 -32 28 -68 59 -81 70 -12 11 -33 29 -45 40 -151 131 -187 162 -204 178
-11 11 -42 38 -68 60 -27 23 -59 51 -71 62 -12 11 -56 49 -96 85 -41 36 -85
75 -98 88 -12 12 -25 22 -27 22 -3 0 -13 8 -23 18 -38 36 -176 158 -192 169
-10 7 -33 27 -52 45 -19 18 -60 56 -92 83 -97 84 -120 104 -143 127 -22 22
-58 35 -47 17z m3497 -2464 c3 -16 11 -52 17 -80 6 -27 13 -61 15 -75 2 -14 4
-25 5 -25 1 0 3 -7 5 -15 15 -58 27 -109 31 -130 2 -14 11 -52 19 -85 9 -33
18 -71 21 -85 2 -14 12 -54 20 -89 9 -36 18 -74 20 -85 2 -12 8 -39 13 -61 6
-22 19 -80 31 -130 17 -76 28 -120 35 -145 5 -19 16 -90 14 -92 -1 -2 3 -13 9
-24 6 -12 14 -37 16 -55 6 -38 14 -74 16 -74 1 0 4 -13 6 -30 3 -16 9 -43 14
-60 5 -16 12 -41 14 -55 17 -81 47 -213 59 -260 8 -30 18 -73 22 -95 10 -51
11 -53 23 -100 12 -42 21 -86 27 -120 2 -11 4 -21 5 -22 2 -2 3 -6 4 -10 17
-68 26 -109 32 -148 3 -16 12 -55 21 -85 8 -30 17 -68 20 -85 3 -16 16 -72 29
-123 13 -50 23 -95 22 -100 0 -4 2 -14 5 -22 4 -8 8 -26 10 -40 2 -14 7 -32
10 -40 3 -8 8 -28 11 -45 3 -16 9 -47 15 -67 5 -21 7 -38 4 -38 -3 0 0 -7 7
-15 7 -8 10 -15 7 -15 -3 0 -1 -15 4 -32 5 -18 12 -49 15 -68 3 -19 10 -42 14
-50 5 -8 2 -26 -6 -42 -8 -15 -15 -31 -16 -35 -5 -28 -12 -43 -19 -43 -5 0 -9
-5 -9 -11 0 -7 -18 -50 -40 -96 -22 -47 -40 -91 -40 -98 0 -7 -7 -18 -15 -25
-8 -7 -15 -18 -15 -24 0 -6 -9 -28 -19 -48 -11 -19 -18 -38 -15 -40 2 -3 -2
-11 -11 -18 -8 -7 -15 -18 -15 -25 0 -7 -23 -62 -51 -122 -28 -59 -61 -130
-74 -158 -12 -27 -36 -79 -52 -115 -17 -36 -33 -75 -37 -87 -4 -13 -12 -23
-18 -23 -6 0 -9 -3 -6 -6 3 -3 -13 -47 -37 -97 -92 -199 -107 -232 -109 -242
-2 -5 -24 -55 -51 -110 l-48 -100 -15 35 c-9 19 -16 37 -17 40 0 3 -6 15 -13
26 -6 12 -8 24 -5 28 3 3 1 6 -5 6 -7 0 -11 3 -10 8 1 4 -10 32 -24 62 -54
116 -138 311 -138 320 0 6 -5 10 -11 10 -6 0 -9 7 -5 15 3 8 1 15 -4 15 -6 0
-10 8 -10 18 0 10 -6 26 -13 37 -7 11 -31 61 -52 110 -21 50 -57 132 -81 183
-24 52 -44 99 -44 106 0 7 -5 17 -12 24 -6 6 -13 17 -14 24 -1 7 -13 38 -27
68 -14 30 -39 85 -56 123 -17 37 -31 69 -31 72 0 3 -13 32 -29 64 -16 33 -26
62 -23 65 3 4 0 6 -7 6 -7 0 -10 4 -6 9 3 5 1 12 -4 15 -7 5 -8 41 -1 41 2 0
6 21 14 66 3 20 8 42 10 50 3 8 7 25 10 39 3 14 23 111 46 215 22 105 42 199
45 210 2 11 4 20 5 20 1 0 3 9 5 19 2 11 11 51 19 90 9 39 18 83 21 99 12 66
16 83 21 99 3 9 7 27 10 40 10 53 13 65 23 111 6 26 14 64 17 84 3 20 10 47
15 60 5 13 7 23 4 23 -2 0 1 15 6 33 6 17 12 43 15 57 3 14 18 88 35 165 17
77 32 151 34 165 2 14 4 25 5 25 1 0 3 7 5 15 2 8 24 112 49 230 26 118 53
242 60 275 22 93 36 158 41 183 2 13 6 31 9 40 3 9 8 33 11 52 6 40 42 205 45
205 1 0 4 13 6 29 2 16 6 36 10 45 3 9 8 30 10 46 2 17 6 39 9 50 2 11 11 52
20 90 29 134 29 134 38 80z"/>
</g>
</svg>
