<svg xmlns="http://www.w3.org/2000/svg" viewBox="0 0 378.93 379.39">
  <title>Ресурс 2</title>
  <g id="Слой_2" data-name="Слой 2">
    <g id="Слой_1-2" data-name="Слой 1">
      <g>
        <path d="M105,17.12h15.67l.69,4.62h15.51l.4-4.48,5.69-.42V6.43l4.7-.46c.26,1.67.48,3.08.75,4.86l5.74.29L154,11c.1,1.93.19,3.86.3,6.09l4.84-.33V11l-.13.15,6.12-.16V17l4.61-.26V11.1H165c.07-1.48.14-3,.23-4.71l4.62-.67c.15-1.74.29-3.49.45-5.45h16.42c.2,1.69.41,3.42.66,5.5l4.77.36L192,6c.06,1.71.11,3.41.17,5.12H187.4v6l4.62-.37V11h11.12v5.77h11l-.26-5.63H203V.39h16.76l.6,5.33,4.66.64V17.11l.14-.13-5,.29V28.13l-5.77-.31-.73-5.89-4.42.51c-.13,2-.24,3.67-.35,5.35l-5.42.54V49.81h5.7V33l5,.43V43.85l5.6.43.66,5.71h4.71V60.76h5.66c.24-2,.44-3.78.67-5.76h4.68V71.78l5.84.66v4.7l.14-.14-6.19.34V88l-4.93.22v-5h-6V77.44H214.29l-.45,5.44-4.7.46c.08,1.7.14,3.08.21,4.67h10.81v6h5l-.32,4.77-4.78.66c.1,2,.18,3.72.26,5.56h10.83c-.09,1.58-.18,3.15-.3,5.16H214v-5h-5v-11H198V88.28l-5.72-.38c-.17-3.93-.33-7.49-.48-11.05H203V72h10.77l.69-6h5.67v5.78h11l-.27-5.64H220V61.39l-5.74-.71c-.15-1.94-.27-3.56-.41-5.33H209v10.8H203V60.93H192V55h6.08l-.27-4.61h-5.67v4.76H187V50.38h-6c.14,1.72.25,3.11.37,4.63h5.76V72h5c-.06,1.66-.13,3.32-.19,5l-5,.29V99.16h-6V94.29H165.48l-.89,4.52h-5.16V88H180.8V72.09l-5,.31V82.82H165.39V77.41l4.81-.78V61.28l5.54-.42V50.29h-5.22l-1.06,5H159v5.81l.14-.14-5.11.16V55.4h-5.87v5.73h-5.07l.27,5,4.66-.35V61l6.15,0V71.76l-6,.68c-.08,1.74-.15,3.22-.22,4.7l.14-.14H143l.14.14c-.09-1.55-.17-3.1-.28-5.14H137l.14.14V55.33l5.82-.54c0-1.68,0-3.14,0-4.6l-.14.16L154,49.8V44l4.79.31c.25,2.1.46,3.83.66,5.56h5.39V33.34h-5.47c-.23,2-.44,3.78-.65,5.58l-4.71.22V33.39h-5.86v5.75l-5.29-.35V27.93H110.28l-.46-5.56-4.69-.69V17ZM176,22h4.75V11l-4.61.4V22.1H170.4v5.61H176Zm21.88,6.48H181.34V43.76H197.9Zm-49.66-.61h10.57V22.35H148.24Zm27.48,16V33l-5.41.25V43.83Z"/>
        <path d="M17,181.23h5.14V170.07l-.15.14h5.76l.69,5.71H38.76v-5.5L33,169.79l.38-4.41h10.7v10.48l6,.61v10.41h5V176.46l5.88-.68v-5.71H72.1v6.08l4.61-.27V170.2H72c.06-1.71.11-3.41.17-5.12l-.14.14H87.75v-5.77l-4.57-.71c-.08-1.73-.14-3.2-.21-4.68h4.76V148.2H83l.32-4.78,4.49-.6.67-5.78h5.67v6h5v11h6V164.8l4.61.68.73,4.58h15.66c-.1,1.93-.19,3.86-.29,5.77l-4.7.67v10.71H105.06l.27,4.63H121v-4.78l5.14,0v10.7l-4.86.76v10.2l5,1v10.11l5.65.65c.08,1.75.14,3.23.21,4.71H110.42l-.72-4.88h-4.25l-.87,4.63-5.76.46v-5.22H94v-11H88v-6.08l-4.62.26v5.68h4.76v11h6V225l4.84.32q.09,8.49.17,17L94.31,242l-.54-5.49-5.43-.62-.7-4.58H83v-11H72c0-3.71,0-7.42,0-11.13h4.77v-6l-4.63.37v5.76H66.37l-.65,4.6-4.61.73v5.67H50c.09-1.93.19-3.85.28-5.77l4.47-.63.71-4.54L61,209V192.1h4.78v-11l-4.64.41v10.74H49.9v17H44v-5.78H28l.27,5.64H44.12l-.34,5.18H33.35v5.61l5.75.67v4.68h-17v6H17.22l-.26,5,.14-.14H11l.14.14V225.11l-.14.14,6.08-.31-.33-4.84H11l.14.14v-5.92H21.72V209.4L17.26,209V192.63l4.57-.87v-4.23l-4.72-.73v-5.71Zm92.86,28.2c.06-2.12.11-4.24.17-6.35h6c-.11-1.89-.19-3.28-.26-4.59h-5.65v4.73h-4.8V209l4.61.3.43,4.67h5.25v-4.88ZM99.12,181.24l-5.28-.38V170.4H83v10.94H72.28v5.86H88.07c-.13,1.92-.23,3.31-.35,5.2H72.31v5.46H98.87v-5.31l-4.28-.82c-2.38-5.33,2-4.25,4.38-5v-5.67h17.08l-.26-4.63H99.12ZM28.24,197.91h15.5V181.49H28.24ZM98.83,165v-5.55H94.36V165Z"/>
        <path d="M274.16,373.19l-4.7.22c-.21,1.82-.41,3.58-.64,5.59H242.34c-.15-1.78-.27-3.39-.43-5.36h-5.52c-.17,1.62-.36,3.37-.56,5.36h-4.64V362.67l-6-.72v-4.76l-.15.14,11.14,0-.15-.15v10.72h6c.11-2,.2-3.57.3-5.4h4.66c.14,2,.25,3.69.37,5.4H257.8v-32.6H253c.1-1.93.2-3.87.29-5.75l4.59-.7v-4.23l-4.66-.9c-.12-1.93-.23-3.54-.33-5.19h-6V329.1l-4.93.22v-4.8H225.39c-.25,1.7-.47,3.12-.69,4.59l-4.68.21v-4.76h-5.86v4.76H209v11l.14-.15H203v17.15l.14-.15H187.31c-.12,2-.22,3.58-.32,5.15l.15-.14H181l.14.14-.22-5.14H170l.14.15v-5.79l5.55-.59V340.18H159l.14.14v-5.27h11V313.17l-.14.14h11.14c-.17,1.95-.29,3.36-.4,4.59l-4.73.82c.1,1.95.18,3.56.27,5.21l4.45.62c.28,1.72.51,3.13.73,4.46h5.41c.14-1.6.27-3,.43-4.72l4.43.2c.28,1.77.51,3.18.73,4.53h5.16c.36-1.72.68-3.24,1.06-5h10v-5.56l-5.67-.46v-10.4l-4.82-.71c-.08-1.74-.15-3.22-.22-4.7h15.93c.1,2.2.17,3.66.23,5.12h-4.76v5.87h4.74v4.77h6l-.37-4.63H214l0-6.15h11.22v11.14l6-.31V307.46l11.1-.51-.15,6.34H236.1c.11,1.92.19,3.3.27,4.61H242v-4.76h4.78V307.4l-4.62-.3-.18-4.94h10.76V291.28H247V280h15.87c.18-2.15.31-3.76.45-5.45h10.85v10.75h-4.78c-.26,2.26-.46,4-.69,6H258.37v5h10.75v10.49l4.74.87V318l-4.46.52c-.24,2.05-.45,3.79-.66,5.59l-5.37.31v4.65l5.44.4c.24,2.1.45,3.85.66,5.72h4.71l-.14,5.15.14-.14H263.46v6.14h10.72l-.15-.14q0,13.57,0,27.15ZM197.79,351V335.58H181.46V351Zm65.5,11h5.55v-4.46h-5.55ZM253,307.46c.13,2.22.22,3.83.32,5.74l4.39-.24v-5.5Z"/>
        <path d="M351.05,214.12V225H340.41v5.89l5.38.45V247l-5.39.45V253l5.55.45v20.89h11.24l-.14-.14v10.74h-5.74c-.11-1.45-.23-2.86-.35-4.46h-4.67v10.48h-6V280.6l-5.21-.5v16.19l.15-.14-6.13,0,.14.15V274.15l-.14.14,5.72-.3c.3-1.82.53-3.22.73-4.47l4.34-.75v-5.7H329.49v-21h10.35V236.5H324.4c-.25,2.06-.45,3.81-.65,5.45H318.4V225.51H324c.12,1.93.21,3.55.32,5.4h4.89V209.48l5.58-.64v-5.48l-5.45-.45L328.9,198H318.05v-5.94h11.11c-.14-1.93-.24-3.31-.36-4.87H318.05V176.28l-5-.22.14.14c-.1-1.93-.2-3.86-.31-5.76l-5.55-.68v-4.37h10.52c.2,1.65.37,3.06.54,4.4h5.32V159h-16.3v-5h10.43c.25-2.26.44-4,.62-5.61h5.47c.14,2,.26,3.69.41,5.89h10.88c-.18,1.92-.32,3.32-.45,4.67l-5.37.44v5.47l5.58.64c.08,1.74.15,3.22.22,4.71h-6v6h-5.08c.11,1.92.19,3.31.28,5l4.66-.36v-4.77h6v-6h5.19V159.42l5.79-.66v-4.7h5v-6l11.14.15-.15-.14v5.71l-4.66.67v10.47h4.35c.2-1.66.42-3.41.7-5.7h5.76l-.14-.15v11.15l.14-.15H357.46V176l4.14.33c1.75,4.41-.5,5.23-4.18,4.92v16.45l4.5.93V203h-21.5V209l5.3.39.75,4.56,4.72.36Zm-15.68-32.78v16.54h15.44V181.34Zm4.56,33.09h-4.51v5.73l4.51-.28Zm11.21-44.5c-.12-1.79-.21-3.19-.3-4.58h-4.46v4.58Z"/>
        <path d="M362.05,318.18v5.94H351.42V329l5.49.45v10.49l4.92.28c.2-1.69.37-3.1.56-4.73h16.35v10.59H362.45v5.16h16.48v5.64l-5.54.67c-.11,1.58-.22,3.18-.33,4.78l.15-.14-5.14.28v5.86l.14-.14H362.5c-.21-1.88-.41-3.62-.64-5.63h-4.52c-.12,1.68-.23,3.3-.38,5.36l-5.5.6c-.11,1.31-.23,2.7-.38,4.38l5.77.65V379H346.39V368.68l-6-.7c-.11-1.92-.21-3.85-.31-5.77h6.07c-.11-1.92-.18-3.31-.26-4.62h-5.67v4.76h-4.76v10.72l4.44.39v5.43h-15.4c-.18-1.55-.39-3.28-.63-5.39l-5.78-.31.13.15v-4.77l6-.7V357.72l4.61-1V346.57l-4.49-.69V335.67l5-1V318.52l5.72-.65v-4.71h4.75v-5.87h-4.75l.15-11.14-.15.14h15.83c.12,2.14.23,4.06.34,6h-5.08l.28,5,4.65-.35v-4.77l6.12.17-.14-.14v10.68l-5.64.66c-.08,1.38-.17,2.77-.29,4.81H362.2Zm-26.59,17.3v15.39h15.43V335.48Zm-.17-6.45h4.58v-4.49h-4.58Z"/>
        <path d="M116.13,329.16h-5.7l-.69-4.67-4.74-.34.14.14v-10.8L99,313.15l.13.15v-6.18h16.95l-.32-5.07H105v-5.9h5.09l-.31-4.87H105v-10.7l5-.76v-5.68h11.24v11.2l5-.54V269.48h5.58l.6,4.4,4.55.73.33,5.35h10.53v-5.44l-4.58-.69c-.07-1.74-.14-3.22-.21-4.69h4.75v-5.87H143V258.5l-5.79-.66c-.08-1.76-.15-3.24-.21-4.71h6v-6l4.78.33c.25,2.09.46,3.83.66,5.54h5.64V242.49h4.69v15.89c-4.25-1-5.59.57-4.28,4.42l4.83,1v10.41l5.84-.26V258.45h5V268.9l5.8.66c.08,1.75.15,3.23.22,4.71h-5.77v16.88h5.77v5.14h-5.76c-.27,2.27-.48,4-.72,6H159.08v15.62h-4.7c-.24-1.68-.45-3.09-.69-4.78H148l.14.14v-5.78l5.85-.65v-10.7h10.72V285.41l-5.42-.45c-.16-1.61-.31-3-.49-4.71l-4.67.24v15.82h-11.3V285.47H137V296.3H121v-5.07l-5,.27.36,4.66h4.77v21.7l-5.16.77v10.68Z"/>
        <path d="M33,105.16V99.48l5.85-.67L39.11,94l-.14.13,5.14-.3V83l-.14.14,5.74-.29V77H44l.14.14V72.39H54.77l.54,4.47,5.48.43v5.46l-5.36.59-.7,4.41-4.61.68V99.15H44.36v5.61H50V99h4.65c.23-1.48.44-2.88.7-4.58l5.43-.61.55-5.65h4.8L66,88l.3,5.76H88V88h6V83h22V72h5.14v4.77H132V72l5.14.15L137,72c.08,1.55.16,3.1.27,5.14h5.87L143,77V82.8l-5.83.59V88a2,2,0,0,1,.14-.16l-5,.25c-.17-1.83-.3-3.24-.43-4.66h-5.47c-.28,1.71-.5,3.12-.71,4.38l-4.36.74v5.33l4.73.54c-.1,1.68-.18,3.06-.28,4.79H116V88.42H105.42V99h10.73l-.18,6.12.15-.14H99.42l-.69,4.71H87.93V99.36H83v10.89H72.12v5.92H61.37l-.68,5L55,120.87V110.05h5.89l.32-4.84H71.84V99.35H61.32v6H55.1v4.86H44.32l-.64,6.12H28v9.87l.14-.14H17l.14.14L16.82,121H11l.14.14V116l-.14.14h5.66l.7-5.92h10.4l.57-4.91,4.8-.33v4.77h6l-.37-4.63Z"/>
        <path d="M307.05,61.15h10.77c.1,1.56.18,2.93.29,4.61l-4.73.58v5.31l4.34.74c.21,1.25.43,2.66.71,4.38h5.48c.13-1.42.26-2.83.42-4.44h4.34c.26,1.38.55,2.91.86,4.61l5.52.31v5.9l.15-.13H324.42l-.57,4.76h-5.42c-.26-1.71-.48-3.11-.71-4.61h-4.65V77.4h-5.61V83h5.75V98.77l-6.12.73c.09,2,.18,3.75.25,5.42l5.59.39c.14,1.68.27,3.08.39,4.49H324c.09-1.78.16-3.27.23-4.76l-.14.14h4.71v11.17H318v9.3l-5.1,1.08v10.1l-5.86.68v5.67l.15-.14-5.13.16v-6h-6c.1-1.59.2-3.18.34-5.22h10.55v-5.46l-4.84-.92c.07-1.56.12-2.82.2-4.55h10.84l-.29-4.64-5.55-.69c-.14-1.93-.26-3.54-.4-5.57l-5,.24V94.18h-5.83V88.1l-4.61.26V94h4.75c-.11,1.6-.23,3.2-.35,4.75l-4.53.68v5.46l4.6.35c.15,1.68.28,3.09.42,4.66l5.68.3v5.94H285v-6c-3.89.31-6.19-.49-4.37-4.9l4.13-.32v-5.5l-4.47-.7V77.35h4.54c.18,2,.34,3.72.53,5.75l5.48-.24V72.05H280.43V66.13c3.75.33,5.89-.59,4.12-4.91l-4.11-.33V55h10.74v5.88l5,.27-.14-.14c.1,1.59.19,3.18.29,4.77h10.85V61Zm-5.32,21.77V72.34h-5.32V82.92Z"/>
        <path d="M236.17,6.11V.35h65.7V21.6l5.17.81V33.12l.15-.13-5.15.13V28.23l-5.82-.31c-.13-1.9-.25-3.8-.39-5.81H291v-5h-6c.1-1.93.21-3.86.31-5.76l5.55-.69V6.33H280.41V17h4.76v5h6v6.09l5.18-.28c-.06,1.79-.11,3.57-.17,5.35h-5v17H274.43c-.27-2.38-.48-4.12-.71-6.14l-4.39.42V54.63l4.84,1c-.12,1.94-.21,3.52-.32,5.56H263.17v4.94L258,65.83V50h5V33l5.77.3c.26,2.13.47,3.87.68,5.57h4.38V17.27l-4.47-.47-.65-5.68H263V6l-4.87.32v4.78L247,11l.14.14C247.08,9.55,247,8,246.87,6H236Zm44.18,22.13V43.77h4.45V28.24Z"/>
        <path d="M22,296.3h5.95V285.39H43.61c.19-1.72.34-3.1.56-5H33.33v-6H43.65l.5-5.21H28l.15.14v-6.13l-.15.14H44.14v-10.2h10.6c.26-2.22.47-4,.7-5.95h5.68v11.22H50.35v10.73l4.75.22-.14-.14c0,1.71.1,3.42.16,5.12H50.36v5.87h4.76c-.12,1.6-.23,3.2-.34,4.74l-4.6.72-.35,5.63H33.34v5.14H49.83v5.85H28.33v5.14H44.08l-.3,6H33.33v5H50v5.95l.14-.14H44v11.14l.13-.14H33.37v-5.74l5.28-.35.52-4.65H22.36v-6l5.29-.34.49-4.43-6-.73V296.16Z"/>
        <path d="M38.81.39v38.4H.42V.39Zm-6,6H6.28V32.76H32.84Z"/>
        <path d="M.38,340.46H38.76v38.41H.38Zm5.94,6v26.43H32.65V346.5Z"/>
        <path d="M6.11,154.19c-.06-3.71-.11-7.42-.17-11.12h4.78v-11l-4.64.41v10.74H.34V126.4l5.45-.54L6.1,121l-.14.14H11.1L11,121l.27,5.14H17.1L17,126l.28,5.75,4.66.7c.08,1.74.15,3.21.21,4.69H17.34v6L22,142.8V137H28.1V126l-.14.14L33.1,126v5.79l5.94.61-.3,4.4-5.63.67v5.68H28l.31,4.87h4.78v5.75l5.7.71v4.65H28.35l-.68,5.9H22l.15.14V154.36L17,154.05l.14.15-.29-5.74H11v5.74l.13-.15H6Z"/>
        <path d="M378.79,38.84h-38.4V.43h38.4ZM372.91,6.31H346.44V32.7h26.47Z"/>
        <path d="M143.12,368.18H132.39v4.88l4.45.4v5.47H110.28l-.37-5.13-4.64-1V362.57l4.5-.31.53,5.75h5.39l.67-5.62h9.42v-5l-4.53-.37v-5.73h10.88l-.14-.15.3,5.76h10.85v-5.76l-.14.14h5.14l-.15-.13v5.66l5.79.69.31,4.62H143.3c-.12,2.34-.22,4.26-.32,6.17Z"/>
        <path d="M105,11c0,2,0,4.1,0,6.15l.14-.14-5.74.29L98.67,22H77l.14.14L76.77,17,72,17.35v4.77l.13-.15H66.36V.38H76.82c.1,1.88.2,3.8.31,5.71H72.06c.1,1.93.18,3.31.27,5L77,10.73V6l17.13.17L94,6l.31,5.14h10.84Zm-22,.29c.1,2.2.17,3.81.25,5.47H87.7V11.26Z"/>
        <path d="M285.19,357.33v-5.65l-4.76-.74c-.19-1.33-.38-2.73-.63-4.48l-5.77-.28.15.14v-6.14l-.14.14h6v-5.15h5.14v4.77l5.79.69c.12,1.92.22,3.53.34,5.62h10.51c.24,1.89.41,3.3.61,5l4.62-.29V340.17l6.21.33v10.44l4.64.73v5.52H285Z"/>
        <path d="M368.22,61.14q-.11-3-.18-6l-.14.16,5.14-.59V44.31l5.8-.26v61h-5.77l.14.15V83h-11V77l-.14.14h5.86c.11-2,.19-3.59.28-5.14l-.14.14,4.77-.3V61h-4.77Z"/>
        <path d="M77.1,340.16H72.43c-.23-1.54-.44-3-.75-5H50l.14.14V324.17l-.14.14,11.13-.15v5.07l5-.28-.35-4.65H61q.07-8.57.17-17.13l-.14.14h5.12l-.14-.14v10.91H77v22.24Z"/>
        <path d="M17,66.15H27.73L28,61.32l-5.74-.46V55.47l5.48-.7L28,50.33l-5.74-.49v-5.4H38.69v5.41l-5.4.42v4.64l5.4.3v5.63l-5.4.45v4.63l5.4.3v5.63h-10l-1,5H22.41l-.71-4.53L17,72l.14.15V66Z"/>
        <path d="M116.14,335.31q0-3.07,0-6.15l-.14.15,4.76-.32c.25-1.74.44-3.13.68-4.83h10.69v5.07l5-.28-.35-4.65H132q0-3.07,0-6.13h11v-5l5.14.15-.14-.14.15,11.15h-5v11H132v5l.14-.15H126l.13.15c-.09-1.57-.18-3.13-.3-5.15H116Z"/>
        <path d="M357.19,274.29V263.57l-5.75-.64v-4.48h10.22c.26,1.37.55,2.89.9,4.71h10.27c.2,2,.37,3.77.57,5.82l5.5.42v10.43H362.44c-.16-1.57-.35-3.31-.57-5.4l-4.82-.28Z"/>
        <path d="M66,362.21v16.7l-4.53.43-.67-5.85L55,373.18l.14.14V362.55L50,362.17l.14.15-.21-4.7L44.34,357V346.34H50.1L50,346.2l.24,5.14H61.1L61,351.2V362l5.15.37Z"/>
        <path d="M11,247.13v5.67l5.79.67v15.46H6.26l-.42-5.36-5.5-.64V247.27H11.09Z"/>
        <path d="M318.05,39v4.66l-4.79.71V54.78l-5.92.53c-.1,2-.19,3.92-.29,5.84l.14-.15H296.05l.14.14L296,55h6V50h4.74V44.13H302V39h5.15V33l-.15.13h6.15l-.14-.14v5.86l5.14.28Z"/>
        <path d="M362.21,247h-4.65l-.72-4.43-5.42-.63v-5.48l5.25-.43c.27-1.45.56-3,.9-4.82H367.9c.16-2,.29-3.78.44-5.74h10.41V236H362.21Z"/>
        <path d="M318.06,373.19V379H302.42c-.17-1.64-.35-3.37-.56-5.46l-5.81-.3.14.15v-4.76l5.76-.7c.14-1.94.25-3.56.38-5.33h10.9v10.79h5Z"/>
        <path d="M99,313.15v4.68l-4.84.73V329H83.21c-.06-1.38-.12-2.65-.18-4.19l4.83-.91V313.57l-4.73-.68v-5.73l-.15.14,4.77-.31.64-4.78,5.85.26V313.3h4.88Z"/>
        <path d="M346.21,88.16V61.44h10.85V72.15l.14-.14-6.08.3c.12,1.77.22,3.16.33,4.84h5.75l-.14-.14v5.77l-5.85.68v4.7L346.06,88Z"/>
        <path d="M50,39.14l4.7-.21c.21-1.8.41-3.55.66-5.8h5.77L61,33V44H72.12v6.13h-6v5L61,55l.14.14L60.84,50H55l.14.14V44.27L50,44l.15.14V39Z"/>
        <path d="M362.2,318.32v-4.71l5.66-.66c.17-1.73.34-3.48.54-5.46h10.5v16.36H368.46c-.18-1.57-.37-3.3-.6-5.4l-5.81-.27Z"/>
        <path d="M181,362.18v16.73H159.41v-5.44h10.08c.36-1.8.66-3.32,1-5.05l5.21-.3c.21-1.79.41-3.53.68-5.8h4.77Z"/>
        <path d="M6.09,66H.33V50.35H5.54L6.46,55H17V66.15L17.1,66H11l.14.14-.35-5.08L6,61.38v4.77Z"/>
        <path d="M362.42,296.46c-.08-1.59-.16-3.18-.26-5.13H372.7c.25-2,.47-3.74.74-5.79h5.42V302H368.35c-.13-1.78-.24-3.38-.4-5.62h-5.69Z"/>
        <path d="M10.72,203l-4.56.4v10.55l-5.81.3V192.5H10.72Z"/>
        <path d="M11.1,242.11H.36V220.24H11.1L11,220.1v5.15l.14-.14-4.77.29v10.85H11.1l-.14-.14v6.15Z"/>
        <path d="M187,362.32h10.74v16.62H187.14V362.18Z"/>
        <path d="M313.19,33.13v-16h5L318,17l.22,4.7,5.58.63V39h-5.79l.14.14V33.26L313.05,33Z"/>
        <path d="M335.31,72.2c-.14-2.3-.23-3.92-.36-6H324.39V55.47h10.42c.17,1.56.37,3.29.59,5.33l4.48.53V71.71Z"/>
        <path d="M225.17,357.19h-4.7c-.22-1.85-.42-3.59-.67-5.82H209.16v-11.2l-.14.15,11.14-.15v6h5L225,357.33Z"/>
        <path d="M16.75,296v28H11.41v-27.6l5.5-.26Z"/>
        <path d="M28.11,263.13h-6v-16l-.15.14h5.75l.75,6.05H38.75v5H28v5Z"/>
        <path d="M83.13,307.16H77.46c-.24,2-.44,3.69-.69,5.78l-4.4.3c-.2-2-.38-3.73-.6-5.8l-5.8-.28.14.14V296.14h6v6.22H83v4.94Z"/>
        <path d="M231.17,17.11v-11h5L236,6l.3,5.14h10.84L247,11V16.7l-4.86.74v4.69l-5.75-.29c-.27-1.79-.48-3.2-.74-4.86H231Z"/>
        <path d="M17.11,181.09h-5.7l-.67,5.78H6.27l-.44-5.33-5.49-.68V170.42H5.78L6.23,176H17v5.26Z"/>
        <path d="M368,186.85c.12-1.95.21-3.56.32-5.43h10.58v10.33H362.49c-.12-1.14-.27-2.5-.45-4.19Z"/>
        <path d="M373.06,126.05v10.74l5.81.59v10.53h-5.34l-.72-4.52-4.74-.34.14.14-.15-17.14,5.15.13Z"/>
        <path d="M373.07,105v4.69l5.78.67v15.67h-5.79l.15.13v-9.73l-4.76-.64V105.17h4.76Z"/>
        <path d="M5.65,335.07H.31V313.48H5.65Z"/>
        <path d="M126,340.17v5.76H110.4V335.31h5.74l-.15-.14c.09,1.57.18,3.13.3,5.15h9.84Z"/>
        <path d="M368.21,159.21v-4.76h10.61v15.61h-5.75l.14.15V159.06h-5.14Z"/>
        <path d="M17,72V82.76l-5.7.59-.45,4.49H6.24V77.44l4.53-.68L11.1,72l-.14.14H17.1Z"/>
        <path d="M378.9,247.48v10.34H368.47V247.48Z"/>
        <path d="M335,.4V5.76H318.36V.4Z"/>
        <path d="M373.49,198.39h5.41v15.54l-5.41.26Z"/>
        <path d="M143,368.33h4.7l.71,4.7,5.44.46v5.42H143.12V368.18Z"/>
        <path d="M373.06,368.2c.07,1.47.13,2.95.21,4.7l5.56.64V379H368.21v-10.8l-.14.14h5.14Z"/>
        <path d="M22.12,296.16,16.75,296l.16.14c0-1.47,0-2.93,0-4.68L11.25,291v-5.46H22V296.3Z"/>
        <path d="M55.11,55H44.38V44.13h5.74L50,44v5.87l5.14.28L55,50v5.14Z"/>
        <path d="M66.11,88.17v-11h6L72,77l.28,5.76,4.83.7L76.7,88H66Z"/>
        <path d="M170,357.18V362H159.15V351.19l-.15.13h5.77l.69,6h4.69Z"/>
        <path d="M66.11,66h-11V55l-.14.15h6.14L61,55v6h5.14L66,66.15Z"/>
        <path d="M61.1,351.34V340.53l4.72-.25c.14,2,.27,3.79.41,5.75l5.48.4c.12,1.39.24,2.8.42,4.77H61Z"/>
        <path d="M17.22,98.89V88.39l4.5-.31.58,5.82,5.3.35v4.64Z"/>
        <path d="M54.69,21.87H44.31l-.24-4.57,5.77-.48.36-5.4,4.49-.5Z"/>
        <path d="M6.1,116.17V110.5l-5.8-.68L0,105.38H11v10.8l.14-.14H6Z"/>
        <path d="M203,357.32h10.76V368H209.3l-.38-5.34-5.78-.7v-4.78Z"/>
        <path d="M11.09,247.27c0-1.72,0-3.44,0-5.16l-.14.15H17.1v-6.15l-.14.14,5.15-.14L22,247.26l.15-.14H11Z"/>
        <path d="M94.36,351.41h4.41V362H88.3v-4.56l5.36-.29C93.88,355.36,94.09,353.63,94.36,351.41Z"/>
        <path d="M159.15,351.19H148l.15.13v-4.78l5.66-.6c.24-2.05.44-3.79.65-5.62h4.69l-.14-.14v11.14Z"/>
        <path d="M132.13,351.33V340.17l-.14.15h4.79c.23,2.22.42,4,.6,5.66l5.62.65v4.69l.14-.14H132Z"/>
        <path d="M94.12,6.12V.36H105V6.11l.15-.14H94Z"/>
        <path d="M126.34,6.28v-6h10.52V6.15H126.19Z"/>
        <path d="M33.11,83.15v-6h11L44,77v6.15l.14-.14H33Z"/>
        <path d="M225,17.11h6.15L231,17V28.13h-6c0-3.72.09-7.44.13-11.15Z"/>
        <path d="M362.21,72.15v-11h6l-.15-.14V72.15l.14-.14h-6.14Z"/>
        <path d="M203.17,379v-5.33h10.57V379Z"/>
        <path d="M28,269.12V280l-5.63.26v-11h5.78Z"/>
        <path d="M77,340.31H87.81c.09,1.87.17,3.59.26,5.63h-11v-5.78Z"/>
        <path d="M291.18,373.19h-6v-11l-.15.14h6v11Z"/>
        <path d="M329.39,17.27h5.39V27.73h-5.39Z"/>
        <path d="M27.69,335H17.27v-5.41H27.69Z"/>
        <path d="M351.19,214.26v-4.77h10.67c.08,1.34.16,2.72.27,4.63H351.05Z"/>
        <path d="M154.14,11.12V.36L159,0V11.12l.13-.15H154Z"/>
        <path d="M72.11,77.16V72l-.14.14H83.12v5L72,77Z"/>
        <path d="M105,6.11l11-.17-.16-.14.28,5.17H105l.15.14V6Z"/>
        <path d="M22.11,170.07H11.35L11,165.21H22.11l-.15-.14v5.14Z"/>
        <path d="M83.29,373h-11V368.5H82.89c.09,1.7.18,3.17.26,4.65A2,2,0,0,1,83.29,373Z"/>
        <path d="M93.91,335.43h10.83V340H94.44Z"/>
        <path d="M66.11,362.35v-5h11L77,357.2v5H66Z"/>
        <path d="M72.12,33.12q0-5.56,0-11.15l-.13.15h5.14L77,22c0,3.71.1,7.43.14,11.14L72,33Z"/>
        <path d="M60.68,5.85H55.31V.26h5.37Z"/>
        <path d="M192.14,6.13V.38h5.63V6H192Z"/>
        <path d="M125.82,11.32h6v5.5l-5.48.26c-.14-2.11-.27-4-.39-5.91Z"/>
        <path d="M5.77,291H.37v-5.49h5.4Z"/>
        <path d="M318.18,17.13V11.39h5.63V17H318Z"/>
        <path d="M5.81,296.48v5.4H.32v-5.4Z"/>
        <path d="M50.13,39H44.38V33.37H50v5.77Z"/>
        <path d="M66,33.13h6.14L72,33c0,2,.09,4.1.13,6.15h-6V33Z"/>
        <path d="M340.06,88.17h6.15l-.15-.14.15,6.14h-6.16L340.2,88Z"/>
        <path d="M39.11,94h-6V88l-.15.14h6v6Z"/>
        <path d="M329.35,33.23h5.47v5.56h-5.47Z"/>
        <path d="M11.35,44.29h5.44V49.7H11.35Z"/>
        <path d="M77.11,357.35V351.6h5.62v5.6H77Z"/>
        <path d="M50,362.17v5.75H44.36v-5.6h5.76Z"/>
        <path d="M373.06,362.33h5.75v5.87h-5.75l.15.13v-6.14Z"/>
        <path d="M274,373.33h5.75V379h-5.61v-5.76Z"/>
        <path d="M72.12,72h-6V66l-.14.15h6v6Z"/>
        <path d="M49.68,5.85H44.31V.26h5.37Z"/>
        <path d="M121.12,6l-5.34-.16.16.14c.08-1.78.18-3.56.28-5.61H121V6.1Z"/>
        <path d="M50.1,346.34q-.09-3-.16-6l-.14.16,5-.28v5.95H50Z"/>
        <path d="M11.1,72h-5V66L6,66.15H11.1L11,66v6.14Z"/>
        <path d="M335.34,50.08V44.32h4.58v5.44Z"/>
        <path d="M362.19,50h-4.73V44.33l4.59-.26v6.06Z"/>
        <path d="M105.26,357v-5.45l4.51-.29V357Z"/>
        <path d="M44,61.28h5.76v4.59H44.34Z"/>
        <path d="M6.1,121H.33L0,116.17H6.1L6,116v5.14Z"/>
        <path d="M362.05,50.13h5.86c0,1.81,0,3.51,0,5.21l.14-.15c-1.79-.08-3.57-.18-5.85-.3V50Z"/>
        <path d="M6.12,279.8v-5.25l4.59-.41v5.66Z"/>
        <path d="M88.13,373.33v-4.74h5.65l.27,4.59H88Z"/>
        <path d="M368.07,143.05v5h-6l.15.14v-5h6Z"/>
        <path d="M55,373.18v5.76l-4.63.37v-6h4.77Z"/>
        <path d="M88,373.18v5.72l-4.71.49V373s-.14.16-.13.16l5,.18Z"/>
        <path d="M357.19,302.31v-5.86h5.22l-.15-.14c-.09,1.79-.18,3.57-.3,5.85h-4.91Z"/>
        <path d="M6,154v4.76H.29L0,154.19H6.11Z"/>
        <path d="M105,324.15v4.76H99.32l-.26-4.62h6.08Z"/>
        <path d="M296.05,373.19V379l-4.87.34v-6.11l-.14.15h5.15Z"/>
        <path d="M373.07,170.06v5.78l-4.86.33v-6.11l-.14.15h5.14Z"/>
        <path d="M17,154.05v4.76H11.09v-4.76l-.13.15H17.1Z"/>
        <path d="M50,335.17c0,1.78-.11,3.56-.17,5.35l.14-.15-5.84-.3v-4.9l-.13.14h6.14Z"/>
        <path d="M121,6.1l5.37.18-.15-.14-.36,5.18s.14-.16.13-.15l-4.84-.32V6Z"/>
        <path d="M61.11,33.13V28.35L66,28v5.09l.13-.14H61Z"/>
        <path d="M285.19,362.19h-4.78c-.1-1.53-.19-2.93-.32-4.86h5.1l-.15-.14v5.14Z"/>
        <path d="M33.11,88H28.33L28,83.15h5.09L33,83v5.14Z"/>
        <path d="M357.06,72.15h5.15l-.14-.14v5.14l.14-.14h-5.15l.14.14V72Z"/>
        <path d="M335.05,83.15h5v5l.14-.15h-5V83Z"/>
        <path d="M220.3,373.28v-4.76h4.59V373Z"/>
        <path d="M105.13,121.18V116.4h20.73l.4,4.57h16.58V137h22.29v6.08l4.61-.27v-5.67H165V126.24H148.34v-5h16.32c.26-1.69.47-3.09.77-5h4.71L170,116v9.74l6.15.74v10.35h5V126.41l6-.67V116l-.14.14h4.73c.28,1.92.49,3.32.71,4.79l5.22.29V126l-5.3.32v10.55l5.79.67v5.68H187.22c-.1,2.1-.16,3.55-.23,5l.14-.14h-11v6.16H143.41c-.27,1.87-.48,3.28-.7,4.85H132l.14.14V148h16c-.16-1.88-.27-3.27-.42-5.13H136.93V132.14l-5.1.25c0-1.93,0-3.85,0-6.19H121v-5.08l-5,.28.36,4.65h4.77v6.19H132v4.81H116l.14.14c-.1-1.59-.2-3.18-.3-4.82l-5.94-.58V121H105Z"/>
        <path d="M55,143.19l.15-6.14-.15.14H72.12l-.15-.14v5.65l4.76.74.65,4.62h5.74v6.14H66.23v-11Z"/>
        <path d="M181.15,99v10.82l6,.33L187,110v6.15l.14-.14H170l.13.14v-5.72c-2.85-.38-6.48,0-4.71-4.9l4.5-.87c.1-1.73.19-3.36.33-5.66Z"/>
        <path d="M136.82,99.38h6c.13,1.77.25,3.37.39,5.29l4.47.72c.2,1.31.42,2.72.69,4.49l5.73.31-.14-.14v5.74H143.32c-.15-1.7-.31-3.42-.51-5.62H132.24c-.08-1.73-.13-3-.2-4.55l4.92-.92V99.22Z"/>
        <path d="M94.12,132H88.37V121.18h16.76L105,121v5.22H94v5.93Z"/>
        <path d="M66.12,126.18v-4.7l5.86-.67V116H82.69l.41,4.7-5.82.65L77,126.18l.15-.14H66Z"/>
        <path d="M137.15,94.15l.15-6.33s-.14.15-.13.15h16.58V94H137Z"/>
        <path d="M148,77.14h5.75v5.63h-5.6c0-1.93,0-3.85,0-5.77Z"/>
        <path d="M77,126.18h5.74V132H77l.14.15V126Z"/>
        <path d="M159,61.13h5.76c.12,1.52.23,2.91.37,4.63h-6V61Z"/>
        <path d="M77,132v5H72l.15.14v-5h5Z"/>
        <path d="M154.13,110.19v-4.77l4.66-.36.27,5H154Z"/>
        <path d="M116,105.16h4.78c.11,1.51.22,2.9.35,4.66l-5,.27V105Z"/>
        <path d="M99.12,137l-5.14.15.14-5.15-.14.15h5v5Z"/>
        <path d="M137,94l-.18,5.36.13-.15-4.61-.3V94.15h4.8Z"/>
        <path d="M258,126h4.69c.23-1.53.45-3,.7-4.64H269v54.68h5.16v11.16H263.05v-5.78h-10c.1,2,.18,3.76.26,5.63h9.85v4.71l5.7.66c.13,1.77.27,3.51.43,5.59h10.41c.16,1.7.29,3.09.46,5H263.38v5.86l5.39.44V231.1H263l.14.15c-.1-1.93-.2-3.86-.31-6.09l-4.84.33v5.76l.14-.14-5.07.34c.11,1.73.2,3.13.31,4.8h4.76l-.14-.14v5.7l-4.67.69-.34,4.75.14-.14h-11v-5l-.15.14,4.77-.3V231.49l-4.78-.74V220.12h20.75v-5.63H242.16v5.77l-6.12-.17.14.14q-.08-8.56-.16-17.12H246.9V187.43h-4.85v10.42l-5.89.68v4.72l-5.22-.36v-10.8H225l.14.13V181.08l-.14.14h5.87c.11-2,.19-3.59.28-5.14l-.14.14,5.12-.16v4.78h11c-.15-1.71-.28-3.09-.41-4.64H236v-5.95h10.86c.16-1.87.28-3.28.41-4.88h5.64v10.46h9.92V159.36H247.43v-11l5.19-.37c.28-1.46.57-3,.88-4.66h4.29c.2,1.49.38,2.9.6,4.56h4.49V132.5l-4.55-.72C258.24,129.92,258.14,128,258,126Zm-5,77.34.25,5.47h4.45v-5.47Zm.37-11v5.83l4.45-.38v-5.45Z"/>
        <path d="M231,143.2h11.13l-.14-.14v4.69l-5.62.64V154l5.27.33V159l-5.19.28c-.21,1.78-.42,3.51-.66,5.55l-4.79.66v10.74l.14-.14H225.3c-.11,2-.19,3.59-.28,5.14l.14-.14-4.8.29c-.22,2.07-.4,3.8-.57,5.5l-5.78.68c.17,1.67.3,3,.46,4.67h10.69l-.14-.13q0,8.57,0,17.13l.14-.14H220l.14.14-.3-5.77-5.48-.61c-.26-1.7-.48-3.11-.71-4.6H209V181.17c4.09.38,6.25-.51,4.54-4.88l-4.22-.33c-.19-2.08-.35-3.81-.53-5.75H198l.31-4.78,4.49-.6.68-5.77h5.67v6h5v4.72h11V154.06l-.14.14h6.15V143.05Z"/>
        <path d="M209.16,105v5h5v5.69l5.63.66c.18,1.37.36,2.77.62,4.66h4.75c0,1.71,0,3.42,0,5.13H220.4v11l4.64-.41V126h6V143.2l.14-.15H225V154.2l.14-.14-5.14.15V143.42l-5.66-.61c-.23-2-.43-3.78-.64-5.62H209v-5.14h4.77V121.18H209V116.4l-5.85-.65V105l-.14.15Z"/>
        <path d="M253,39c.06,1.48.13,2.95.2,4.69l4.66.71c.09,1.88.19,3.81.28,5.75h-16c0,1.86,0,3.33,0,4.81l.14-.16-6.3.35v-5H225V44.21h21.82c.13-2,.23-3.63.34-5.22l-.15.14h6.14Z"/>
        <path d="M263.18,99v6h10.65v5l-4.56.37c-.12,2-.21,3.58-.34,5.88H258v-5.71l-4.66-.68V94.31h4.33l.77,4.72Z"/>
        <path d="M263,77h5.67c.23,2,.44,3.73.67,5.76l4.46.61V99.17H263Z"/>
        <path d="M242,110.17v-5H231V99.52l4.75-.74c.18-1.32.38-2.72.65-4.6h5.73L242,94l.21,4.66,4.58.69v10.49Z"/>
        <path d="M263,66h10.72v6.14H263Z"/>
        <path d="M225,121.18V116h11.15v5.14Z"/>
        <path d="M247.16,66h-4.84c0-3.78,0-7.49,0-11.19l-.14.15,4.82.3V66.14Z"/>
        <path d="M247.34,131.84l-5,.25v-10.6l4.88-.54c0,3.9,0,7.47,0,11Z"/>
        <path d="M258.17,116v10.14h-4.76v-9.84Z"/>
        <path d="M236,116.18V110h6.14v6.15Z"/>
        <path d="M225,88h6.15v6.14H225Z"/>
        <path d="M247,66.14h5.75v5.62h-5.6V66Z"/>
        <path d="M242,77.14h4.76v5.68l-4.62.26V77Z"/>
        <path d="M242.16,143.21v-6h5l-.14-.14v6h-5Z"/>
        <path d="M247.16,137.21c.06-1.79.11-3.57.18-5.37l-.14.15,5.61.29v4.79H247Z"/>
        <path d="M242.16,94.18V88.42l4.63-.37v6H242Z"/>
        <path d="M263.18,72v5.14h-4.77c-.11-1.67-.2-3.06-.31-4.8Z"/>
        <path d="M259,87.88h-5.56c-.09-1.4-.18-2.8-.29-4.54,1.41-.07,3-.61,3.53-.09C257.61,84.18,258,85.76,259,87.88Z"/>
        <path d="M94.11,39.15,88,39l.14.15V33.26L83,33l.15.13V28.37H104.8V39h5.14l-.16-.14q.09,11.16.2,22.32l.15-.14H105l.14.14V50.49l-5.72-.71-.63-5.41-4.48-.61L94,39h4.77V33l-4.63.37Z"/>
        <path d="M121,72.15V66h4.92V55.39h6.22V72.15Z"/>
        <path d="M121.13,66.15h-5v6L110,72l.14.15V61l-.15.14h5.68c.23-2,.44-3.72.68-5.8l4.79-.27Z"/>
        <path d="M137.12,44h-4.75V33.33l4.61-.27V44.12Z"/>
        <path d="M77,39.13V33l6.15.13L83,33v6.14l.14-.15Z"/>
        <path d="M116.11,39l-6.33-.15.16.13c.08-1.78.17-3.56.28-5.61H116v5.77Z"/>
        <path d="M137,44.12h5.86c0,2.14,0,4.18,0,6.22l.14-.15-5.85-.3V44Z"/>
        <path d="M121.34,39.3c-.11-1.8-.23-3.59-.37-5.82h4.89v5.25l-4.68.43Z"/>
        <path d="M148,39h6.14v5.14h-5.86C148.17,42.09,148.08,40.54,148,39Z"/>
        <path d="M116,39.12l5.37.18-.16-.14c-.09,1.46-.18,2.9-.29,4.62h-4.77c0-1.64,0-3.22,0-4.8Z"/>
        <path d="M263.18,33.13h-4.71c-.21,1.86-.41,3.6-.67,5.86H253l.14.14c-.1-1.93-.19-3.85-.29-5.74H247v5.74l.15-.14h-4.71c-.21-1.85-.41-3.6-.66-5.71L236,33l.14.14V28.42l5.85-.67V22h16.14v5.7l4.68.69C263,29.93,263.07,31.53,263.18,33.13Z"/>
        <path d="M220,28h5.14V38.73L220,39.1Z"/>
        <path d="M236,33v5.76l-4.63.37v-6h4.77Z"/>
        <path d="M191.87,33.42v5.33l-4.45.32C187,35.48,186,32,191.87,33.42Z"/>
        <path d="M198.15,94v4.69l4.87.74v5.73l.14-.15H192l.15.14V94.35Z"/>
        <path d="M187.15,110.18v-5h5L192,105v5h-5Z"/>
        <path d="M203.16,72.15H192V66h11.15Z"/>
        <path d="M225.16,83v5.14H220c.08-1.55.16-3.1.25-4.89Z"/>
        <path d="M94.12,253.12V258h10.55c.25,1.8.45,3.19.69,4.87l4.77.64v10.75h-4.64c-.25-1.65-.47-3-.73-4.75l-5.43-.61-.56-5.8H88l.14.15c-.11-1.6-.22-3.2-.34-5.08l-4.8.31v4.77l.14-.14H77.4c-.3-1.93-.51-3.34-.76-5H72l.14.13v-15.7H82.89v10.56Z"/>
        <path d="M83,269.14v4.93H72.35V280H82.76v10.72l5,.81.32,4.74H72v-4.65l4.76-.73v-5.78H66l.14.14v-27h6l-.14-.13v11.14H83.12Z"/>
        <path d="M116.13,253.12,94,253.26v-5.68l5-.73v-4.73H109.8c.13-2.14.23-4.07.34-6l-.14.14h11.13l-.14-.15V242l5.14.28-.14-.14v11.14l.14-.14H121l.14.14c-.09-1.93-.19-3.86-.3-6.08l-4.84.33v5.75Z"/>
        <path d="M72,225.25h4.7l.67,5.86h5.77v5.14H66l.15-5.14-.15.14h6.15v-6.14Z"/>
        <path d="M61,247.26V236.42l5.14-.31V247Z"/>
        <path d="M55.1,269.29v-5.75h5.62v5.61H55Z"/>
        <path d="M55,280.28v-6.14h5.74V280Z"/>
        <path d="M66,285.13v5.76l-4.63.37v-6h4.77Z"/>
        <path d="M61.13,307.17H55.37L55,302.54h6v4.77Z"/>
        <path d="M39,225.11h4.68l.71-4.72,5.75-.29V236l-5.72.35-.65,5.76H39l.14.14v-5.65l-5.8-.69L33,231.5l5.94-.6Z"/>
        <path d="M72.12,220.1c-.05,1.72-.1,3.44-.14,5.15l.14-.14H66v6.14l.15-.14H55.28L55,225.53l5.95-.65V220.1Z"/>
        <path d="M22,236.25v-5.14h5.75L28,236Z"/>
        <path d="M39,242.1v4.75H33.3L33,242.24h6.08Z"/>
        <path d="M55.11,154.06v4.71l6,.68v10.76H55.47l-.74-4.73-4.41-.65V154.35Z"/>
        <ellipse cx="44.04" cy="145.63" rx="15.66" ry="3.64"/>
        <path d="M55,148.06h5.74v5.85L55,154.2Z"/>
        <path d="M165.14,236.11H143l.14.14c-.09-1.56-.19-3.13-.31-5.14H132l.15.14-.15-6.14h4.68l.72-4.72,5.73-.3v4.72h10.71V214.45h-5.47c-.23,2-.44,3.78-.67,5.78H143v-5.69l-5.84-.68V203.09l-.14.14,11.12-.15c0,1.92,0,3.84,0,5.77h5.6v-5.63H148V192.09H137l.14.13v-5.14l-.14.14h6.14v-6.14l-.14.14,5.12-.11v5.72h5.6v-5.58H148c0-1.73,0-3.45,0-5.18h5.77c.25-2.23.44-4,.62-5.62l4.56-.71c.08-1.72.14-3.19.21-4.66l-.14.14,5.75-.31c.27-2.14.49-3.89.69-5.55h4.35v10.48l-4.45.62c-.25,2-.47,3.79-.68,5.51l-5.33.4v4.51l5.36.56V187l-5.36.43v10.48l5.59.65.21,4.71h-5.74v5.87h5.74v4.72l4.73.71v5.63H159.36v4.74h16.41c.26-1.7.48-3.12.73-4.8h4.66v10.78l6,.67c-.14,1.66-.25,3-.38,4.56H176l.14.14-.3-4.77H165v4.77Z"/>
        <path d="M105,154.2v-5.92H115.8c.13-2,.23-3.63.34-5.22l-.15.13h10.13c-.15,1.94-.26,3.34-.36,4.62l-4.45.75v5.33l4.45.5c.24,1.71.44,3.12.68,4.81h5.69l-.14-.14c.1,1.93.2,3.85.29,5.78l5,.65v10.58h5.9c0,1.72-.1,3.43-.14,5.15l.14-.14H137v6.14l.14-.14-11.15.14v-5.67l5.77-.68V170.21H126v-5h-9.7c-.16-2.2-.28-3.95-.42-5.94l-5.41-.31-.77-4.8Z"/>
        <path d="M137.14,203.09h-4.77V192.22h4.77l-.14-.13v11.14Z"/>
        <path d="M72.13,165.08H66.39v-5.63H72v5.77Z"/>
        <path d="M143.14,247.26l-6.14-.15.14.15c-.1-1.57-.19-3.13-.31-5.14H126l.14.14v-5.87l-5.14-.28.14.15v-5h11l-.15-.14c.1,1.56.19,3.13.31,5.14h10.84l-.14-.14C143.05,239.82,143.09,243.54,143.14,247.26Z"/>
        <path d="M110.14,236.12h-4.77l-.35-4.65,5-.28v5.07Z"/>
        <path d="M38.85,187.51v4.42l-5.41.28-.53-4.7Z"/>
        <path d="M99,143.19l.14-6.15-.14.15h17.15l-.14-.14v6.14l.15-.13Z"/>
        <path d="M209.16,285.28H203.4V269.42l5.5-.43c.11-1.74.21-3.35.33-5.29l4.66-.9v-4.29H203.32c-.14,1.36-.29,2.77-.47,4.47l-4.52.41-.44,5.41-5.46.69-.66,4.46-4.76.33v-4.71l-5.84-.67v-5.76l-.15.14h10.84c.12-2,.21-3.59.3-5.15l-.15.14,6.16-.33V236.12l-.14.15h4.75c.27,2.26.48,4,.72,6h10.38c.16,1.74.29,3.15.42,4.58h5.46l.78-4.79H230.9c.15-2.07.27-3.81.4-5.59H242v5.77l.15-.14h-5.71l-.68,4.82-4.45.48v5.35l4.44.72v9.42H225.21v-9.35l-5-.44V269l-5.65.4-.77,4.44-4.61.73Z"/>
        <path d="M351.06,99h10.73v10.85l-4.45.45c-.08,1.73-.16,3.33-.25,5.29l4.64.8c.19,1.21.42,2.62.7,4.34l5.47.63c.1,1.6.2,3.2.31,4.79h-5.72l-.65,5.71-4.6.44v10.38l-6,.73v4.76h-5.14v-11H335.39v-5h15.67Z"/>
        <path d="M296.19,214.1v22.15h-5v10.66H263.48c-.14-1.26-.29-2.65-.51-4.58h10.91c.15-2.22.28-4,.41-5.91h5.43c.21,1.66.43,3.4.69,5.5l4.69.23V231.38l5.67-.35V225.4L285.5,225l-.51-4.4,5.89-.74c.11-1.89.21-3.82.32-5.76l-.14.14Z"/>
        <path d="M247.17,291.15v4.66l-5,.76v5.72h-5.69l-.66-5.77H231.3c-.13,1.8-.25,3.54-.39,5.48h-5.44c-.2-1.66-.41-3.4-.67-5.63H214.35l-.33-5.22H220V274.28h5.21l-.14-.14q.15,2.88.29,5.78l5.65.65c.08,1.74.15,3.22.22,4.7h-5.77v5.6H231v-5.74l5.13.15-.15-.13v6Z"/>
        <path d="M274,176.21v-17h6.14l-.14-.15c.09,1.93.19,3.85.28,5.77l4.48.63.74,4.75h5.64l-.14-.14v16.75H280.38v-5.24l4.42-.76c.11-1.24.22-2.65.39-4.61Z"/>
        <path d="M318.19,187.08v5.14h-4.93v11H302.05v-4.7l-5.65-.65V181.42H302v10.35l4.7.45c.26-1.68.48-3.09.79-5.14Z"/>
        <path d="M285,274.14h5.71c.23,2,.42,3.79.66,5.84l4.47.44v10.43H274.34c-.1-1.86-.2-3.78-.3-5.71h5.67c.23-1.51.45-2.91.72-4.61l4.61-.65Z"/>
        <path d="M296.05,236.11h16.7v10.77l-5.56.6v5.78h-4.91V242.53l-5.94-.6Z"/>
        <path d="M307.05,253.12h5.75v15.75H302.34c-.1-1.9-.2-3.82-.29-5.74h5Z"/>
        <path d="M252.86,258.48l5-.25v10.63H242.39v-5.65H253v-4.89Z"/>
        <path d="M302.19,263.27h-5.7c-.22,1.88-.42,3.62-.7,6H285V263.6l5.74-.68c.19-1.36.4-2.76.64-4.44H301.9Z"/>
        <path d="M302.19,203.09V209h10.66c.08,1.84.15,3.22.25,5.23H296.05V203.09Z"/>
        <path d="M280.35,268.92h-17v-5.34H280c.09,1.9.18,3.7.26,5.5Z"/>
        <path d="M296.05,143.2l6.14-.15v16h-6.14l.14.14V143.05Z"/>
        <path d="M339.85,104.86c.15,1.49.29,3,.48,4.88l5.46.63v5.45H335.38V105.27L340,105A2,2,0,0,1,339.85,104.86Z"/>
        <path d="M318.28,136.75v-4.32l5.65-.59c.12-1.79.24-3.53.37-5.48h4.61v10.39Z"/>
        <path d="M236,274.28h5.75v10.87H236l.15.13V274.14Z"/>
        <path d="M279.82,224.93h-5.34V214.51h5.34Z"/>
        <path d="M225.16,274.28v-4.77H236v4.77l.14-.14H225Z"/>
        <path d="M296.05,159.06l0,11.14.14-.14H291l.14.14V159.06l-.14.14h5.15Z"/>
        <path d="M340.37,147.85h-11v-4.49H340c.09,1.7.18,3.17.26,4.65A2,2,0,0,1,340.37,147.85Z"/>
        <path d="M340.06,99h6.14v5.84h-6.34s.15.14.15.13Q340,102,340.06,99Z"/>
        <path d="M324.21,105h-5.74V99.42h5.6v5.76Z"/>
        <path d="M296,170.2h5.74v5.63h-5.6v-5.77Z"/>
        <path d="M346.2,148.06v6.14h-5.84v-6.35s-.14.16-.13.16Z"/>
        <path d="M252.82,253c0,1.84,0,3.68.05,5.52l.13-.15-5.61-.29c-.1-1.45-.19-2.82-.31-4.56l5.9-.38Z"/>
        <path d="M263.29,257.84v-4.42l5.41-.28c.17,1.53.33,2.92.53,4.7Z"/>
        <path d="M253,247.25h4.87c.08,1.78.16,3.49.26,5.71h-5.32l.15.13.18-6Z"/>
        <path d="M291.2,214.11h-5.76c-.12-1.52-.23-2.91-.37-4.63h6v4.77Z"/>
        <path d="M290.93,198.52v4.42l-5.41.27c-.17-1.52-.33-2.91-.53-4.69Z"/>
        <path d="M209,291.29v-6.15l5.14.28v5.87Z"/>
        <path d="M307,143.18h5.76c.12,1.53.24,2.91.37,4.63h-6V143Z"/>
        <path d="M313.06,176.06v4.75h-5.67c-.07-1.31-.15-2.69-.26-4.61h6.07Z"/>
        <path d="M284.86,258h-4.45c-.1-1.39-.19-2.79-.3-4.5h4.75Z"/>
        <path d="M285.18,269.13v5.15h-4.84c0-1.94,0-3.64,0-5.35l-.14.15Z"/>
        <path d="M346.06,99.17V94h5.14v5.15Z"/>
        <path d="M340.2,94v5.15h-4.77c-.1-1.68-.19-3.07-.31-4.8Z"/>
        <path d="M263,231.1v5h-5l.14.14v-5.14l-.14.14h5.15Z"/>
        <path d="M296.05,302.3h10.74V291.42l-4.44-.4V274.59h15.44v10.12l-4.44,1v10.16l4.66.72V307l5.88.41v5.47H313.37c-.15-1.66-.31-3.4-.49-5.39H302.35c-.14,1.82-.27,3.44-.43,5.56H291.38c-.14,2.07-.24,3.66-.34,5.25l.14-.14H285v6.15l.14-.15h-4.77V302.3h10.77l-.14-.15.35,5.08,4.8-.31v-4.77Z"/>
        <path d="M302.19,335.17l-17.15.14c0-3.71.09-7.43.14-11.15l-.14.15h6.14v-6.15l-.14.14H296V329l6.21.34-.13-.15v6.14Z"/>
        <path d="M302.18,329.32V318.6h10.71c.08,1.57.15,3.27.25,5.3l-5.78.6c-.11,1.63-.21,3.22-.32,4.81l.15-.14h-5.14Z"/>
        <path d="M323.93,247.42v10.44H318.4V247.42Z"/>
        <path d="M307,329.31l11.14,0-.14-.14v6h-11l.14.14v-6.14Z"/>
        <path d="M324.37,268.92h-6v-5.5l5.48-.26c.14,2.12.26,4,.38,5.92Z"/>
        <path d="M335.2,307.16v6.14h-5.74v-5.85Z"/>
        <path d="M280.18,335.31H274v-5.74h5.85C280,331.46,280.08,333.39,280.18,335.31Z"/>
        <path d="M323.88,214.45v5.35h-5.43v-5.35Z"/>
        <path d="M307,225.12v5.74l-4.61.36v-6h4.75Z"/>
        <path d="M307.18,225.26v-4.75h5.67c.08,1.31.15,2.69.26,4.61H307Z"/>
        <path d="M291.18,302.3v-5.77l4.87-.33v6.1l.14-.15H291Z"/>
        <path d="M329.07,296.13v5.76l-4.63.38v-6h4.77Z"/>
        <path d="M318.18,329.33v-4.76h5.67c.08,1.31.16,2.7.27,4.62H318Z"/>
        <path d="M329.21,274.15h-4.86c0-1.81,0-3.51,0-5.22l-.14.15,4.85.31v4.9Z"/>
        <path d="M307.19,340.32l-5-.26v-4.89l-.14.14h5.14l-.14-.14C307.1,336.88,307.14,338.6,307.19,340.32Z"/>
        <path d="M187,302.29v-5.66l4.77-.72c.18-1.36.37-2.78.64-4.76h16.74v4.93h-11v6.21Z"/>
        <path d="M148,335.31V324.17h16.67c.17,1.62.32,3,.53,4.89H154.42l-.61,6Z"/>
        <path d="M186.84,307.51l5.06-.25.32,5.59,5.56.67V318H187c0-3.48,0-7.05,0-10.63Z"/>
        <path d="M176,296.15h4.68l.69,6h5.77c-.1,1.78-.2,3.57-.31,5.35l.14-.15H176Z"/>
        <path d="M170.16,313.17h-4.75V307.5l4.61-.26v6.07Z"/>
        <path d="M143,335.17h5.14v4.77l-4.8.31C143.21,338.37,143.11,336.77,143,335.17Z"/>
        <path d="M225,346.32v-6h-5v-5.15h10.71c.21-1.89.41-3.62.68-6h10.76c0,2,0,4.09,0,6.13H236.1c.11,1.92.19,3.3.27,4.61H242v-4.75h11.13v4.69l-5.84.67-.32,5.78.15-.14Z"/>
        <path d="M236.16,357.35V351.6h5.62v5.6H236Z"/>
        <path d="M247,346.31h5.76c.13,1.52.24,2.91.37,4.63h-6v-4.77Z"/>
        <path d="M187.4,340.48h4.45v5.44l-4.45.39Z"/>
        <path d="M214,329.17h6.14v6.14H214Z"/>
        <path d="M340.36,191.84v-4.46h5.44c.12,1.33.24,2.72.39,4.46Z"/>
        <path d="M345.91,346.07h-5.47v-5.56h5.47Z"/>
        <path d="M88.38,274.41H93.8V285H88.38Z"/>
        <path d="M105.13,291.15v5.14H94.39L94,291.15Z"/>
        <path d="M88,263.12v6H83l.15.13v-6.14l-.14.14h5.14Z"/>
        <path d="M176,291.29v-5.64l4.79-.75c.08-1.3.17-2.68.29-4.35l-4.8-.63-.28-5.78h11.14v17.15Z"/>
        <path d="M176.15,242.11h-11v-6l-.14.14h11.15l-.14-.14v6.15Z"/>
        <path d="M187.15,253.12h-6v-6l-.14.14,6.13,0-.14-.15c0,2.05,0,4.09,0,6.13Z"/>
        <path d="M176,247.12v5.73h-5.61v-5.59h5.76Z"/>
        <path d="M192.16,258.13h-5v-5l-.14.14h5v5Z"/>
        <path d="M181.17,263.14h-4.78c-.11-1.51-.22-2.9-.35-4.66l5-.27v5.07Z"/>
        <path d="M176.15,247.26v-5.15l-.14.15h5v5l.14-.14H176Z"/>
        <path d="M126,258.13v4.67l-4.62.71c-.18,1.66-.37,3.4-.59,5.4h-4.65V253.12l-.14.14h5.14l-.14-.14c.08,1.55.16,3.1.25,4.9l4.89.25Z"/>
        <path d="M143.14,263.13v6.14H137.4v-5.85Z"/>
        <path d="M132,253.12v5h-6l.14.14v-5.15l-.14.14h6.14Z"/>
        <path d="M137,247.11q.06,3.07.14,6.15l-5.15-.14.14.14v-6h5Z"/>
        <path d="M143.14,313.3H132V302.6l4.65-.44c.26,1.66.48,3,.74,4.75l5.47.6C143,309.46,143,311.38,143.14,313.3Z"/>
        <path d="M132.13,313.16v5.14h-5.75c-.11-1.68-.21-3.07-.33-4.84Z"/>
        <path d="M55.12,137.05H44.39L44,132.5l6-.69V126l16.15.14L66,126v6.22H55v4.93Z"/>
        <path d="M50.11,126.18H33v-4.77H49.81Z"/>
        <path d="M83,77h4.68l.72-4.72L94.12,72V83.16h-6v5H83Z"/>
        <path d="M94,72.15V61.32l-5.54-.27-.7,4.74H77V55h5.69l.69-4.66H93.55l.93,4.53,4.42.45.31,5.52,5.92.3L105,61V72.15l.13-.15Z"/>
        <path d="M110,72v4.79l-4.87.31V72l-.13.15h5.14Z"/>
        <path d="M296.19,137.05q-.07,3.07-.14,6.15l.14-.15-5.15.31V159.2l.14-.14H280l.14.15v-4.69l-5.78-.66V137.34l5.76-.3v11.08l4.63-.27V137.18H280v-4.69l-5.59-.64v-5.63H285V121H291v16Z"/>
        <path d="M285.18,116v5.14h-4.76c-.11-1.67-.2-3.07-.31-4.8Z"/>
        <path d="M296.19,50v5.14H291V50Z"/>
        <path d="M258,11h5.15V21.81l-5.15.31Z"/>
        <path d="M302.19,33v6.14h-6.14V33Z"/>
        <path d="M302.19,50.14h-6.14V44h6.14Z"/>
        <path d="M11.25,27.79V11.39H27.72v16.4Z"/>
        <path d="M27.82,351.51v16.41H11.32V351.51Z"/>
        <path d="M367.74,27.87H351.45V11.31h16.29Z"/>
        <path d="M362.32,93.87V88.4h5.55v5.47Z"/>
        <path d="M351.06,94.16V88h5.74v5.85Z"/>
        <path d="M72,39h5.14l-.25,4.89L72,44.13Z"/>
        <path d="M88,39v4.79l-4.86.31V39l-.14.15h5.14Z"/>
        <path d="M77.12,55.14H72V50l4.89.25Z"/>
        <path d="M72.12,55v6.14H66V55Z"/>
        <path d="M181.14,209.25l-4.7-.22c-.21-1.79-.41-3.54-.66-5.8H170v-4.69l5.79-.66V187.4l-5.5-.46c-.08-1.66-.15-3.38-.24-5.42l5.79-.66.45-4.54,4.57-.36v-5.43l-4.86-.76V154.06h4.89V165h10.85c.23,1.84.4,3.23.63,5.12h5.77v5.68l4.83.73v21.61h6.18v15.82l-5.69.28-.72-4.94H198v-5.77h-5.6v5.63h5.74v15.7H187.39c-.18-1.27-.37-2.66-.64-4.57H181c0-3.71,0-7.42,0-11.13h5.76v-5.6h-5.62Zm16.76-27.7H181.35v16.3H197.9Z"/>
        <path d="M148.14,176.22H143V165.47l5.14-.38Z"/>
        <path d="M165,209.24v-6.15h5.15V209Z"/>
        <path d="M159.16,165.08h-4.75V159.4l4.61-.26v6.08Z"/>
        <path d="M209.16,137.05v10.67l4.6.72.63,5.62h5.77v11.15H214v-6h-5v-4.93H198V143.05h4.7l.65-5.71Z"/>
        <path d="M209.16,121v11.15h-5.75V121.34Z"/>
        <path d="M187,148.19h4.77v10.67l-4.62.27c0-3.9,0-7.49,0-11.08Z"/>
        <path d="M236,220.09V231H214.33l-.4,4.65c-4.56.51-4.56.51-5.13-4.18-.87-.1-1.82-.24-2.77-.33s-1.61-.1-2.67-.17v-5.73h10.3l.76-4.8h5.49c.12,1.47.23,2.88.33,4.16,4.39,1.74,5.24-.48,4.89-4.41h11.05Z"/>
        <path d="M225,209.22h5.76c.12,1.53.23,2.91.37,4.63h-6v-4.77Z"/>
        <path d="M220,209.08v4.75h-5.67c-.07-1.31-.15-2.69-.26-4.61h6.07Z"/>
        <path d="M198.17,236.12h-5.76c-.12-1.52-.23-2.9-.37-4.63h6v4.78Z"/>
        <path d="M187.14,247.28V242.5l4.66-.35c.09,1.68.17,3.06.27,5H187Z"/>
        <path d="M187.29,193v-5.56l4.54-.29c.07,1.41.61,3,.09,3.53C191,191.66,189.41,192,187.29,193Z"/>
      </g>
    </g>
  </g>
</svg>
