<svg xmlns="http://www.w3.org/2000/svg" viewBox="0 0 377.11 377.04">
  <title>Ресурс 3</title>
  <g id="Слой_3" data-name="Слой 2">
    <g id="Слой_4-1" data-name="Слой 1">
      <path d="M341.91,306.93v17.88h18v6.25l.15-.13-6.08.3c.12,1.77.21,3.15.33,4.84h5.75l-.14-.14v5.79l-5.58.58v17.77h10.72l-.14-.14v5.14l.14-.15H348.13V354.28h-6v10.35H325.24c-.11-1.51-.22-3.1-.33-4.69h5.76v-5.6h-5.62v5.74h-5.68c-.24-2.05-.44-3.8-.67-5.81H307.23l-.43,5.29-4.52.74c-.09,1.32-.19,2.72-.32,4.64h10.77v11.67H290.22c-.07-1.57-.15-3.28-.24-5.31l6-.59V354.23l5.66-.41v-5.74h-11.7v-5.77h-5.6v5.63h5.75v5.67l-5.87.67-.3,5.78.15-.13-6.08.3c.12,1.77.21,3.15.33,4.84h5.75l-.15-.14v11.73h-39.7c-.08-1.57-.17-3.15-.27-5.09l4.83-1v-5.18l-4.52-.71c-.11-1.53-.23-3.13-.34-4.73h4.77v-6l-4.63.37v5.76H226.4c-.23,1.49-.45,2.88-.72,4.58l-5.45.62-.39,5.2-4.64.95c-.12,1.63-.24,3.24-.39,5.2h-5.68V365.24l-6.21-.32.14.15c-.1-1.6-.21-3.19-.31-4.79l-5.61-.65c-.12-1.91-.22-3.52-.34-5.57H173.91V330.87h-17v-5.94h4.75v-5.87h-4.75v-5.77l-5.85-.66v-10.7l-.14.14h6.14v-6.14l-.14.14,5-.3V283.93h6v-6h6.16v6h6v5.74h5.86v-5.74h4.77V273.07h-4.77v-6.15h11v-6h12.14v5.76h10.86v-5.76l12.3-.2V267l5.69-.27v-5.83h5.76v-5.6h-5.62v5.74l-6-.21-.18-11.94h6v-5h6.13V249l5-.28c-.14-1.75-.24-3.14-.36-4.65H243.9c.11-1.93.21-3.86.31-5.74l4.71-.7v-11.7h11.76c.26,2.38.45,4.11.63,5.72H272.8c.16-2,.29-3.58.43-5.38h4.54c.16,2,.31,3.71.46,5.45l5.84.68v5.67H278.3c-.27,2.3-.49,4.05-.73,6.05l-4.44-.5c-.12-2.05-.22-3.65-.32-5.3H255c.09,2.07.17,3.81.25,5.49l5.55.43c.17,1.64.32,3.05.47,4.47l5.48.65c.25,2.06.46,3.8.67,5.47l5.3.38v5.51l-5.46.67v11.41l5.73.45c-.09,1.72-.16,3.1-.26,5H261.2c-.18,2.14-.31,3.76-.45,5.48H249.34v-5.53l5.38-.39v-4.51l-5.81-.62v-5.71h11.75v-5.62H249.05v5.76h-5.19v16.63l-6,.67v17.53h-5.89l.14.14V289.78H220.24v-5.6l5.4-.38V273.21H215.42c-.35,1.71-.67,3.22-1,4.85l-5.11-.33-.68-4.52H197.25v4.55l5.45.49c.25,2.08.45,3.81.69,5.84h11.32v5.67l-5.36.49V301.8l5.42.45.46,4.45,4.67.64v5.71l.15-.14h-23v6.14h-5.76v5.6h5.62v-5.74l5.77.32.72,6h11.36c.19,2.34.34,4.15.48,6h-6V359.7h10.87V347.92h5.94v5.74h5.86v-5.74h16.81v-5.68l-4.61-.52V336.1h10.57c.27,2.27.47,4,.69,5.81h5.67v5.77h5.59v-5.62H260.9c.11-1.93.22-3.85.35-6.22H290.1c-.2-1.89-.34-3.28-.51-5H267.2c-.16-2.05-.29-3.79-.43-5.57h-5.49l-.71,5.79H244c.09,1.95.17,3.54.24,5.13h-6c-.23,2.22-.4,3.93-.6,5.85h-5.72v-5.74h-5.86v5.74H215.12v-11l4.69-.43c.15-2,.27-3.65.4-5.39h5.49c.24,2,.44,3.76.68,5.74l5.41-.25c.17-2.16.29-3.77.45-5.88h16.92V302.21l5.55-.46v-5.88H244.18v-5.61h51.53v5.45l-5.64.64v5.71H284c.13,1.94.22,3.33.33,4.87h5.77c.06,2.1.13,4.2.19,6.29H278.07v5.83H273.3v6l4.63-.37v-5.76h11.89c.11-2.23.2-4,.29-5.81h5.67c.18,2.26.31,3.86.44,5.61h10.5l.6-5.64h11.74l-.14-.14c.05,2.05.09,4.09.14,6.14h-5.72V341.8l5.46.45c.14,1.92.27,3.67.4,5.41h5.71V324.93h11.15v-18l-.14.14h6.14Zm-81,58.15v-4.77h-6c.14,1.72.25,3.11.37,4.63h5.76v5.74h5.57v-5.6ZM168,312.91v5.8h5.79c.1-2,.2-3.83.29-5.61h16.59c.26-2.53.44-4.26.61-5.93l5.37-.38V296.33H185.76v10.79H174.27c0,2.26,0,4.19,0,6.1l-6.36-.16q.1-5.49.22-11l5.49-.26v-11.6h-5.34c0,4.15,0,8.07,0,12h-5.93v10.69Zm12.18,34.74H196.6v-16.4H180.22Zm167.53-16.32H331.36v16.42h16.39Zm-92.67-18.62h17.57v-5.57l-5.23-.29c-.35-1.76-.66-3.28-1-4.92l-5.12.32c-.26,1.73-.47,3.14-.67,4.45l-5.56.71Zm46.77,29.11c.11-2.12.2-3.73.28-5.41l4.89-1c-.07-1.57-.13-2.83-.19-4.16H296.3v10.52Zm-34.68,17.95h5.55v-5.46h-5.55Zm6.18-63.59v5.94l4.69-.53c-.1-2-.19-3.64-.28-5.41Zm-35.26-18.35c-.19-1.92-.32-3.32-.45-4.59h-5.35v4.59Zm35.07,70.27,4.58-.45v-5.36h-4.58Z"/>
      <path d="M371,115.91h-5.69c-.22-1.89-.42-3.63-.65-5.64H354.11v11.31l-5.89.71c-.1,1.91-.21,3.84-.31,5.77l.15-.13h-6.14l.14.14V115.91h-6.13l.14.14c-.1-1.93-.21-3.87-.31-5.71l-4.54-.74V99.28h4.47c.23,1.67.43,3.08.61,4.42l5.49.7c.17,2,.3,3.57.45,5.3h5.41V99.23l-5.49-.57c-.14-2.08-.26-3.69-.4-5.77H330.91v-6h4.74V75.07H324.92v-5h-6v-6h-6c.06-2,.13-4,.19-6h11.65c.19,2.22.32,3.84.47,5.63h5.44V51.85H319.27c-.25-2.24-.45-4-.63-5.62h-5.37c0,4.15,0,8.08,0,12h-6.32c.11,2.23.19,3.93.27,5.72h5.87l0,6.13h-5.71l-.79,5h-22.3v6H295.9V93.06l.14-.15-6.11.17V87.31h-5.6v5.63h5.75v10.73l-5.78.67v34.74h5.75l-.14-.14v5.7H249.23v-5.7h11.44c.27-2.26.48-4,.72-6l5.42.27c.15,2.18.27,3.79.38,5.45h5.64c.12-1.92.21-3.54.31-5.28l4.72-.91c-.06-4.14-.06-4.14-5-5.22,0-5.72,0-11.52,0-17.33h4.77v-11l-4.63.41v10.73h-11.7v-5.9l5.35-.42V86.88H255.06V80.93l-.14.14h5.93v-29h6.21l-.14-.14v6.14h6.14l-.14-.14c.1,1.93.19,3.85.3,6.08l4.84-.33V57.93l-.14.14h6.14l-.14-.14c.1,1.92.19,3.85.29,5.73h5.85V57.93l-.14.14,6,0c.13,1.9.25,3.8.39,5.91l5.48-.26V58.28h-6l.3-6.34-.14.14,6.14-.33V34.93l-.14.14,5.12-.16c0,1.92,0,3.84,0,5.77h5.59V35.06H306.9V29.31h11.93V40.75l6.22.33-.14-.14c.07,1.49.14,3,.23,5H336V63.79h5.89V52.28h5.92c.13,1.78.24,3.4.39,5.36h5.75V46.24h5.87V57.67h5l.39-5.31,5.45-.63.66-5.44h5.45v63.54l-5.5.33-.33,5.9Zm-16.81-51.7V74.78l5.46.45c.25,2.07.45,3.81.69,5.83l4.42-.41c.16-2,.29-3.62.44-5.47l5.41-.38V64.21Zm10.65,23.2h-4.63l-.57,5.29-5.46.69v5.33h16.45V93.29l-5.56-.7C365,90.78,365,89.3,364.88,87.41ZM277.66,92.8V69.88l-4.41.5V92.8Zm64.57-22.61V80.71h5.44V70.19Z"/>
      <path d="M168.07,35.06v-12h11.65c.17-2.12.3-3.73.48-5.88h16.47L197,12H180.27c-.18-2.11-.32-3.73-.5-5.87H168.3V.26h17.52c.11,1.86.21,3.48.33,5.45l4.59.26c.16-2,.3-3.79.45-5.74h11.43c.2,1.7.41,3.44.65,5.46h5.47c.15-1.7.28-3.32.45-5.32h16.72V12.06l.15-.13-6.14.14V6l-4.86.33v5.77H203c.1,1.87.18,3.26.26,4.64l5.79.69v5.68H203.3V46l5.61-.27V22.94h6.16v23h5v5.74h5.86V45.92l6.14.15-.14-.14c.1,1.92.21,3.85.33,6.14h11.81l-.14-.14v6.14l.14-.15h-5.75V69.86h16.61V81.07l.14-.14-6.14.14V75l-4.86.33v5.77l-12.3.2V75.08h-5.83c.06-1.66.13-3.32.19-5l5.91-.39c-.11-2.16-.19-3.87-.27-5.48h-5.49c0,2.16,0,4.08,0,6l-6.16-.36V58.07H208.92V52.33h-5.86v5.74h-5.74v5.86h5.75v5.78h17.15v5.22h5.85v5.88l5.82.3v5.95h-12V81l-4.86.33v5.77l-6.19-.3V75l-6.07.26V87.06h-5.89V75.27h-6.15c0-3.71,0-7.41,0-11.19h-4.84V58.31h-5.6v5.63h5.75V74.81l4.81.31v5.47l-4.76.9c-.12,1.92-.22,3.53-.32,5.2h-6V75.08h-5.92V70.31h-6c.14,1.72.25,3.11.37,4.63h5.76c-.11,1.92-.21,3.84-.32,5.77l-5.69.66v5.69h-6.15v-6h-5V75.33h-5.85v5.74l-5.83-.3c-.19-2.06-.35-3.78-.55-5.91h-11.4c-.27-1.87-.48-3.29-.7-4.8h-4.67V58.37h-5.72l-.46,5.44-5.9.42V80.77h-5.65c-.14-1.93-.27-3.69-.4-5.47l-5.7-.66v-4.7l-.15.14,6.15-.35V57.94l-.15.14,6.14-.35V45.94l-.14.14h5.75c.27,2.25.48,4,.68,5.71h5.7V22.93l-.14.14,5.15-.14V45.68h6.07V35.07h5.92l-.14-.14v6.14h6.14l-.14-.14v5.14l.14-.14-5.74.29v5.85h5.74l-.14-.14v5.71H139.19c-.17-2-.3-3.59-.45-5.36h-5.43V63.74l5.5.6c.15,2,.27,3.65.39,5.36h22.5l.71-5.81h11.3V58.24l-5.65-.53V40.93l-.14.14,5.74-.29V34.93h-5.74Zm12.25-5.82V45.62h16.43V29.24Z"/>
      <path d="M353.92,209.07h10.8c.17,1.94.33,3.68.51,5.66h5.68V197.34h5.8V324.75h-5.33c-.2-1.64-.42-3.39-.71-5.66H348.26v-5.85h11.36c.24-2.23.43-4,.65-6h10.31V296.15h-10.3V284.26h10.36v-6.05l-5.14-.36c-.29-1.45-.59-3-.92-4.66h-4.24c-.21,1.44-.42,2.85-.67,4.58l-5.57.45v11.37l-5.81.69v5.48l5.33.43v10.74H341.91l.15.14-.31-4.75h-5.83v4.75l.14-.14-4.8.3c-.23,2.09-.42,3.81-.62,5.7H318.92l.14.14V307.3l5.85-.67v-4.69h5.76v-5.6h-5.62v5.74H312.92v-6.15h6.26V284.23h5.62c.14,1.94.27,3.68.39,5.45H342c-.1-2.06-.17-3.8-.25-5.47l-5.6-.47c-.13-1.94-.26-3.68-.38-5.43H307.06v5.76l-4.74-.31V272.83h10.59v-5.9h6.15v5.76h11.86v-5.76h11v-6h6.15v5.74h5.86v-5.74l5.77.3c.26,2.14.48,3.89.69,5.55h4.35V249.31l-4.6-.68c-.08-1.74-.15-3.22-.22-4.7h5v-6h5.73v-5.86h-5.74v-5.74l-4.64-.64c-.25-2-.45-3.77-.67-5.62h-5.69l.15-11.13Z"/>
      <path d="M93.07,296.06v-5.67l-6-.7v-5.76l-.15.14h17.26V273.23h5.36l1.07,5H133l-.26,5.86H122.26v5.63l5.43.56c.26,2.06.48,3.79.69,5.47H138.8c.14-1.94.27-3.68.42-5.88h11.69v-5.95h6.16l-.15,12.14.14-.14h-6.14v6.14l.14-.14H139l.27,4.79,5.91.67v17.54h5.9V335.7l5.65.6.63,5.56,4.7.22-.14-.14v5.73l-4.56.63v11.62h10.71l-.14,5.15.14-.15H151.14v11.79H139.22v-5.32l5.45-.69v-5.44H133.11v11.37h-17v-5.7l-.15.14h11.75v-11h-5.76c.1-1.93.2-3.86.3-5.77l5.57-.67V348H116.29v-5.7l5.73-.68c-.1-2-.18-3.75-.25-5.42l-5.55-.4c-.18-1.66-.32-3.07-.47-4.5l-5.69-.65v-5.7l-.14.14h12.17V313.33h6.06v11.58H133c0,1.92,0,3.84,0,5.77h5.59v-5.62H132.9c.11-1.94.21-3.87.32-5.76l5.54-.69v-5.43l-5.91-.41v-10.7H121.92v-6.14h-12l.14.14-.29-5.74h-5.85v5.74l.14-.14H92.92Zm52.15,45.67-.17,6.35h-5.74l-.71,5.74-5.33.4v5.45h11.64V347.94h5.79v-5.78l-5.61-.29c-.12-1.9-.25-3.8-.38-5.91l-5.48.26v5.5Zm-16.87-5.55v5.94l4.69-.53c-.1-2-.19-3.64-.28-5.41Z"/>
      <path d="M5.94,191.08H16.65V180.22l-4.45-.45-.4-5.52-5.59-.46L6,168.15H16.74l.33-6.22-.15.14h5.86l.28-5.14-.14.14h6.14v-6.14l-.14.14H41.08v-6.13l-.15.14h4.76l.68,5.85h5.7v11.15H45.93V157.3h-11l.41,4.64H46.07v12h18c-.09,1.91-.18,3.82-.28,6.18H52.31v5.62l5.55.64c.08,1.76.14,3.23.21,4.7h-6v12H35.35v5.73l5.36.44v5.46l-5.65.66v4.71H28.92v-4.75H23.06v4.75H16.85v17.86H11.92l.15.13v-5.69L6.2,231.7l-.4-5.47-5.45-.42v-5.57h11l1.07-5.08,4.36-.37V203.26l-4.87-.35.14.14v-5.66l-6-.7v-5.75Zm39.83-10.82H29.3v16.38H45.77ZM35.35,168.19v5.58h5.37v-5.58Z"/>
      <path d="M74.91,277.93v5.71l-4.68.67-.29,5.13,4.9,1c.1,1.7.19,3.32.3,5.22l5.57.65v10.59H70.24c-.09,2-.17,3.76-.27,5.77l4.81.66.4,5.45,5.45.44v5.7H70.27v10.64l4.69.89v17.32l6.09.34-.14-.14v5.69l-5.67.65-.34,4.77.15-.14H58.26l-.36,6.14.15-.14H52.32c-.2-1.9-.4-3.65-.62-5.72l-5.34-.36-.47-4.43,5.8-.69v-5.47l-5.33-.45V342.23l5.68-.32c0,1.92,0,3.84,0,5.77h5.59v-5.62H51.9v-5.7l-5.83-.67V318.93l-.15.14H52.2v11.68H63.7v-5.46L58,324.61l.26-5.43,5.85-.42V302.31l6-.73-.28-5.4-5.87-.41V283.91h-6l.14.14-.15-6.13,17.14.15Zm-5.15,76.42H58l.26,5.41H69.76Zm0-12H64.22v5.37H69.8Z"/>
      <path d="M359.91,190.93v5.69l-6,.7v11.75l.14-.14-6.14.14v-5.74h-5.86v5.74h-6.15v-6.29H324.84V186.22l-5.47-.45V173.86h22.32v-5.57l-5.73-.7c.1-2,.18-3.76.26-5.41l5.44-.39v-4.6H331.4c-.34,1.69-.64,3.21-1,4.86l-5.14-.29c-.24-1.72-.45-3.14-.64-4.46l-5.42-.71v-5.7h11.84V132.94l-.15.14,4.74-.34.7-4.67h5.69l-.14-.14v11.14l.14-.14-5.74.29v5.85h5.74l-.14-.14v6.14h6.14l-.14-.14c.08,1.89.17,3.78.27,6.14h11.87l-.15-.14c.06,1.65.12,3.29.17,4.95l.14-.16-5.83.47v17.46l5.52.65v5.76l.15-.13-6.08.3.33,4.84h5.75Zm-12-10.62H331.35v16.28h16.54Z"/>
      <path d="M80.93,34.91l6.13.16-.14-.14V51.65H81.26c-.24-2.07-.45-3.81-.63-5.4H75.22c-.17,2-.32,3.71-.48,5.43l-4.67.67V64.06h-6v6H58l.26,4.61h5.67V69.91l6.14,0v5h11v6.13h-11v12H63.92V81.35H58.07V93.06l-6.15-.13.14.14V86.93H45.92l.14.13V81.37l6-.7V63.94l-.15.14h5.69c.23-2.06.43-3.8.66-5.86l5.48-.43V46.23L58.33,46l-.62,5.75H46.21V46.38l5.52-.68.35-4.76-.15.14H57.6l.68-5.86L64,34.91c0,1.92,0,3.84,0,5.77h5.59V35.06H63.9c0-2,0-4,0-6a1.83,1.83,0,0,1-.13.16h17c.1,2,.2,3.87.29,5.78H75.31v5.6h5.62Z"/>
      <path d="M.33.23H40.74V40.61H.33ZM34.77,6.35H6.39V34.73H34.77Z"/>
      <path d="M40.75,336.33v40.42H.37V336.33ZM6.32,342.24v28.38H34.75V342.24Z"/>
      <path d="M336.1,40.58V.38h40.55v40.2ZM370.76,6.35H342.38V34.74h28.38Z"/>
      <path d="M110.06,353.92h-5.72c-.21-1.89-.41-3.64-.63-5.64H99.23l-.44,5.35H93.11v-11.4l-5.89-.42-.41-5.42-5.56-.69L81,331.24l5.83-.46V319.19h16.85l.33-5.62-4.87-1c-.11-1.62-.22-3.23-.36-5.17l-5.75-.7v-4.75l-.15.14h11.14v-6.14l-.14.14h6.14l-.14-.14v11h6.15c-.1,1.92-.21,3.85-.31,5.79l-5.84.65v11.7l.14-.14-6.1.32v10.32l-4.7.9v5.66h10.66v11.94ZM93.27,325.24v5.43h5.35v-5.43Z"/>
      <path d="M29.06,312.92H22.9v12.14l.14-.15c-2,.06-3.95.13-5.93.18l.16.14-.48-5.77-4.65-.87-.31-5.35-5.59-.46-.45-5.38-5.53-.7L0,302H11.77v-5.65l-5.54-.67-.46-5.45L.36,289.8v-5.73h11.7l-.14-.14.33,6.21H46.07v5.92h-11v6l-5.78-.3L28.6,296l-5.41.25-.45,5.59-5.43.39v4.95H28.92v5.92Z"/>
      <path d="M40.92,87.07h5.14l-.14-.13v6.14h6.14l-.14-.14v11h6.15v5.77l6,.67v11.69H51.84V110l-5.78.29v22.82H34.9l.42-4.94,5.4-.3v-5.56l-5.37-.57v-5.52l5.36-.42v-5.47l-5.65-.65v-5.71l-.14.14,6.08-.31-.33-4.83H34.92l.14.14V92.93l-.14.14h6.14V86.93Z"/>
      <path d="M35.23,57.72h-23v12H22.67l.31,5-5.78.53-.38,5.39-4.42.46-.7-5.87-5.77-.31.14.14V58.32L.28,57.74V52.12H11.55l.74-5.84L16.74,46l.46,5.74h5.42l.64-5.45H40.7v5.45l-5.61.45v5.67A2,2,0,0,1,35.23,57.72Z"/>
      <path d="M225.91,12.06h11.82l.35-6.12-.15.14h5.76V16.83H232.25c-.1,2.06-.19,3.78-.31,6.25h17.11l-.14-.14v6.12l.15-.13-5.14.27v5.87l.14-.14-6.22.32V45.93h-5.92l.14.14V28.86H219.91V22.93h6.15v-11Z"/>
      <path d="M267.06,52.07V35.34h5.87V45.72h5V35.33h5.84c.13,1.75.26,3.49.4,5.44h5.43c.2-1.67.42-3.41.7-5.7h5.75l-.14-.14V52.07l.14-.14h-6.14v6.14l.14-.14h-6.14l.14.14c-.1-1.93-.2-3.86-.29-5.74h-5.85v5.74l.14-.14h-5.14l.14.14V51.93h-6.14Z"/>
      <path d="M17.06,254.92H.34V238.06H12.07l-.15-.13.28,5.75H22.71l.67-5.6H35.05l-.14-.14v6.11l.15-.14-6.13.35v10.81l.14-.15H22.92l.14.15-.29-5.74H16.92v5.74Z"/>
      <path d="M17.07,161.93H.34V139.07H6.06l-.14-.14v6.14h6.14l-.14-.14-.06,6L6,151.28l.26,5.48h5.5v-6h5.35v-5.84l-.14.14h12v6l.14-.14H22.92v6.14l.14-.14H17.2l-.28,5.14Z"/>
      <path d="M99.07,29.06V6.1h-6l.16.14v-6h28.64V6.06l.15-.13-5.78.29c-.24,2.1-.45,3.83-.68,5.86h-5.67V6.31h-5.6v5.63h5.75l-.18,5.12.14-.15-6.19.35V28.93H98.92Z"/>
      <path d="M347.91,128.06h17v5l.14-.15-5.13.23v17.92l.15-.13H347.92l.14.14v-6.14h-6.14l.14.14v-6.14l-.14.14h6.14V127.93Z"/>
      <path d="M17.06,139.06v-5.71l5.65-.64v-4.47l-5.37-.44V104.07H29.06l-.14-.14v5.75l-5.7.69V121.8l5.44.4v16.73H16.92Z"/>
      <path d="M261.17,11.74c-.11-1.85-.21-3.47-.34-5.41h-5.62c-.13,1.71-.27,3.46-.43,5.42h-5.42V.33h28.32V11.74Z"/>
      <path d="M138.92,6.07h11.71c.22-2.05.41-3.78.63-5.79h10.57V11.75h11.82c.13,1.88.23,3.27.37,5.17h-17.1l.14.15c-.09-1.58-.19-3.15-.3-5H138.92c.05-2.05.09-4.1.14-6.14Z"/>
      <path d="M364.92,336.07h5.69c.24-1.71.45-3.12.69-4.79h5.45V341.6l-5.44.69v5.5l5.45.4v5.42l-5.54.69c-.1,1.9-.21,3.83-.31,5.76l.15-.13h-6.14l.14.14V335.93Z"/>
      <path d="M87.07,283.93h-5.7c-.22-1.87-.43-3.61-.67-5.71l-5.79-.29.15.14,0-5.13-.15.14,5.8-.31c.2-2.06.38-3.78.55-5.5l5.43-.62.67-5.57h5.67l-.14-.14v16.75l-6,.7v5.68Z"/>
      <path d="M6.06,139.07v-5.69l-5.79-.67V122.24l5.32-.44.69-5.47h5.64v22.73l.14-.13H5.92Z"/>
      <path d="M29.07,273.06q0-9.06,0-18.14l-.14.15H41.07v6H35.32v5.87h5.75l-.33,6H28.92Z"/>
      <path d="M306.94,12.08h11.68c.23,1.53.43,2.92.69,4.69l5.74.31-.14-.14q0,3.06,0,6.12l.14-.15h-18v-11Z"/>
      <path d="M191.06,364.92H180.4c-.24,2-.45,3.74-.69,5.77H168.06v-5.77l-.14.15h6v-5.15h17v5.15Z"/>
      <path d="M156.92,16.92v5.7l-6,.7V35.06l.15-.13h-6.14l.14.14v-18h12Z"/>
      <path d="M272.75,23.28l11.05-.52c.12-1.85.22-3.47.34-5.42h5.56v11.4H273.16c-.1-2-.19-3.82-.27-5.62Z"/>
      <path d="M87.06,35.07v-6h12l-.15-.13V45.68H92.83V34.93H86.92Z"/>
      <path d="M52.08,63.94h-5.7l-.69,6H40.93l.14.14V64.34l-5.85-.59v-6s-.14.16-.13.16H51.93v6.21Z"/>
      <path d="M70.05,16.91H63.77c0,4.29,0,8.32,0,12.36a1.83,1.83,0,0,0,.13-.16l-5.63-.28V12.31H69.9v4.74Z"/>
      <path d="M121.91,6.06h11.15l-.14-.14c.05,2,.09,4.09.14,6.14h-5.14v11l.14-.14h-6v-17Z"/>
      <path d="M156.92,41.07h5.14l-.14-.14V58l-4.65-.22c-.24-2.07-.44-3.81-.67-5.81h-5.68l.14.14V45.93l-.14.14h5.86c.11-2,.2-3.59.28-5.14Z"/>
      <path d="M254.91,40.93v4.7l-5.7.65-.3,5.78.15-.13h-5.14l.14.14V34.93l-.14.14h5.14l-.14-.14v6.14h6.14Z"/>
      <path d="M284.31.18h11.38V5.81l-5.46.37c-.15,1.88-.27,3.48-.44,5.6l-5.48.24Z"/>
      <path d="M46.22.19H63.66V5.73H46.22Z"/>
      <path d="M342.19,376.66v-5.41h17.59v5.41Z"/>
      <path d="M370.91,364.93v5.67l5.77.67v5.45H365.06v-11.8l-.14.15h6.14Z"/>
      <path d="M248.91,52.06h5.76V63.67H244.06V57.92l-.14.15,5.14-.28V51.93Z"/>
      <path d="M364.9,133.06h5.7c.25-1.69.46-3.1.7-4.78h5.45v10.34h-11.7c0-1.86,0-3.78,0-5.71Z"/>
      <path d="M46.07,318.93h-17v-6l-.14.15h17v6Z"/>
      <path d="M12.05,277.92H.32V267.27H5.78l.38,5.34,5.75.7v4.75Z"/>
      <path d="M6.38,87.19H16.65V98.68H12.2l-.41-5.47-5.41-.39Z"/>
      <path d="M98.81,365.2v11.49H93.25V365.2Z"/>
      <path d="M80.93,6.08c4.11,0,8.22.09,12.33.15l-.15-.14c-.09,1.79-.18,3.58-.28,5.63H81.08V5.94Z"/>
      <path d="M22.92,254.92v11.72H17.06V254.92l-.14.15h6.14Z"/>
      <path d="M191.07,371.05v-6.13l-.14.15h12.14l-.14-.15v6h-12Z"/>
      <path d="M364.94,174.08h11.81c.08,1.86.16,3.57.26,5.61H365.08v-5.76Z"/>
      <path d="M57.9,371.05H69.74l.27,5.63h-12v-5.77Z"/>
      <path d="M74.9,365.05H86.74l.27,5.63h-12v-5.77Z"/>
      <path d="M296.06,35.07V23.35h5.86V35.07l.14-.14h-6.14Z"/>
      <path d="M5.93,325.08l11.33.15-.15-.14c-.09,1.79-.18,3.58-.28,5.63H6.08v-5.78Z"/>
      <path d="M325.05,17.08l0-11.14-.15.14h5.75V16.94h-5.77Z"/>
      <path d="M69.9,17.05H80.75c.09,1.88.16,3.59.26,5.63h-11V16.91Z"/>
      <path d="M6.08,190.94H.32V180.33H5.94v10.75Z"/>
      <path d="M307.08,11.93h-4.77V.27L306.94,0V12.08Z"/>
      <path d="M365.08,173.93h-4.87c0-4.13,0-8.17,0-12.21l-.14.16,4.86.3v11.9Z"/>
      <path d="M17.07,278.06v-5h12l-.15-.13v5h-12Z"/>
      <path d="M40.93,69.91v4.77H29.26L29,70.05H41.07Z"/>
      <path d="M249.05,23.08V17.34h5.62v5.6h-5.76Z"/>
      <path d="M267.07,23.05V17.22l5.69-.27v6.32l.13-.15-6-.21Z"/>
      <path d="M266.93,22.91v5.74h-5.62v-5.6h5.76Z"/>
      <path d="M324.9,23.06h5.74v5.62h-5.59c0-1.93,0-3.85,0-5.77Z"/>
      <path d="M248.91,29.06h6v6l.15-.13h-6.14l.14.14V28.93Z"/>
      <path d="M52.08,40.94H46.33V35.31h5.6v5.77Z"/>
      <path d="M150.91,35.06h6v6l.14-.14h-6.14l.14.14V34.93Z"/>
      <path d="M162.06,41.07v-6h6l-.15-.13v6.14l.14-.14h-6.14Z"/>
      <path d="M254.91,35.06h5.75v5.87h-5.75l.15.14V34.93Z"/>
      <path d="M11.93,202.91v6h-6l.14.14v-6h6Z"/>
      <path d="M5.93,208.91v5.74H.31v-5.6H6.07Z"/>
      <path d="M29.06,98.92H23.32V93.07h5.74l-.14-.14v6.14Z"/>
      <path d="M370.9,116.06h5.74v5.62h-5.59c0-1.93,0-3.85,0-5.77Z"/>
      <path d="M81.08,5.94H75.33V.31h5.6V6.08Z"/>
      <path d="M133.06,6.07V.33h5.86V6.07l.14-.14h-6.14Z"/>
      <path d="M238.08,5.94h-5.75V.31h5.6V6.08Z"/>
      <path d="M29.06,93.07v-6h6l-.14-.14v6.14l.14-.14H28.92Z"/>
      <path d="M325.08,5.94h-5.75V.31h5.6V6.08Z"/>
      <path d="M93.07,301.93H87.32v-5.87h5.75l-.15-.13v6.14Z"/>
      <path d="M35.06,87.07V81.33h5.86v5.74l.14-.14H34.92Z"/>
      <path d="M5.93,74.91v5.74H.31v-5.6H6.07Z"/>
      <path d="M6.08,324.94H.33v-5.63h5.6v5.77Z"/>
      <path d="M22.9,325.06h5.74v5.62H23.05c0-1.93,0-3.85,0-5.77Z"/>
      <path d="M40.6,330.92H35.21L35,325.33H40.6Z"/>
      <path d="M51.75,17.28v5.34H46.32V17.28Z"/>
      <path d="M81.05,354.08v-5.74h5.62v5.6H80.91Z"/>
      <path d="M110.07,360.06q0-3.06,0-6.14l-.14.15h6.15v6l-6.15-.13Z"/>
      <path d="M116.07,370.93l-6.14,0,.14.14v-6.12l-.15.14,6.15-.14-.15,6.14Z"/>
      <path d="M325.05,41.08V35.34h5.62v5.6h-5.76Z"/>
      <path d="M109.93,370.91v5.74h-5.62v-5.6h5.76Z"/>
      <path d="M237.6,376.92h-5.39c-.08-1.78-.15-3.51-.25-5.59h5.64Z"/>
      <path d="M29.06,104.07V98.92l-.14.15h6.14l-.14-.14v5.14l.14-.14H28.92Z"/>
      <path d="M5.75,98.93v4.7H.26L0,99.24Z"/>
      <path d="M371.17,161.64v-4.42l5.41-.28c.18,1.53.33,2.92.53,4.7Z"/>
      <path d="M11.91,278.06h5.16l-.15-.13v6h-5l.14.14q0-3.07,0-6.15Z"/>
      <path d="M359.91,151.06h4.75v5.87h-4.75l.15.14v-6.14Z"/>
      <path d="M110.07,364.93H104.3l-.33-4.87h6.1l-.15-.13v5.14Z"/>
      <path d="M283.91,360.06h5.77c.11,1.55.2,2.94.33,4.87h-6.1l.15.14v-5.14Z"/>
      <path d="M370.91,360.06h5.77c.11,1.55.2,2.94.33,4.87h-6.1l.15.14v-5.14Z"/>
      <path d="M11.92,139.06h5.14l-.14-.13v6.14l.14-.14H11.92l.14.14v-6.14Z"/>
      <path d="M190.93,370.91v5.76l-4.63.37v-6h4.77Z"/>
      <path d="M359.91,331.06h5v5l.14-.14h-5.14l.14.14v-5.14Z"/>
      <path d="M359.91,186.06h4.78c.1,1.54.19,2.93.32,4.87h-5.1l.15.14v-5.14Z"/>
      <path d="M104.07,116.06v-5.69l5.69-.66.32-5.77-.15.14h6.13l-.14-.14v6.14h6.14l-.14-.14.26,5.79h11v6.22h5.86c0,3.7,0,7.41,0,11.11h-5.76v5.6h5.62v-5.74l5.77.31c.25,2.12.46,3.85.67,5.57h5.37V128.21l-5.46-.45c-.24-2.06-.44-3.81-.65-5.68h-5.7v-5.91l-5.84-.3,0-5.94-.14.14h6.14v-6.14l-.14.14h12.14V98.93l-.14.14h5.72l.76,5h4.66l-.14-.14.15,6.12H157.3v6l4.63-.37v-5.76l12.13.16-.14-.14v6.14h6.14l-.15-.14q.09,3.06.16,6.12H157.32v5.63h22.61v-5.77h5.7c.23,2.07.42,3.82.65,5.87l4.61.42v10.44H208.7v-5.41l-5.37-.42-.39-4.45,5.84-.66c.12-1.67.24-3.28.4-5.47l5.66-.28v16.74h5V128.37h12.06v4.69l.15-.13-5.74.29v5.85h5.74l-.15-.14v12.13l.15-.13H219.92v11.14l.14-.14h-5.29V145.26H190.92v11.41l-4.62.72c-.29,1.72-.53,3.12-.76,4.45l-5.25.35c-.24,2.08-.43,3.83-.65,5.74h-5.72l.14.14v-6h-6.15c0-1.72,0-3.43,0-5.15h12v-6h5.76v-5.6h-5.62v5.74l-6.14-.35V138.94h11.75v-5.62H174.05v5.76H162.31v5.64l5.76.68v11.65H150.91v-5.75H133.06v5.76h-5.14v-5.76l-5.75-.7c-.15-1.94-.27-3.56-.4-5.34h-5.49l-.65,5.66h-5.71l.14.14V138.82h-11V127.93l-.14.14,5.15-.14v5.19h11.81c.09,1.8.18,3.59.27,5.49h11.59v-5.33h-12c.06-1.78.11-3.56.16-5.34h5.75v-5.87h-5.75v-6.13h-12Z"/>
      <path d="M244.06,190.92h-6.15v18.14l.15-.13H225.92l.14.14v-5.8l5.6-.55v-5.45l-5.75-.68v-5.65H232c-.11-1.92-.19-3.3-.26-4.61h-5.67v4.75h-22.7v5.73l5.36.42v5.48l-5.65.65v5.71H190.82v11.06l-5-.56V202.94H174.3c-.26-2.24-.46-4-.7-6h-5.68l.14.14v-5.76l6-.73-.52-4.73H162.29v-5.58l5.63-.62V167.92l6.14.15-.14-.14c.09,1.9.17,3.81.27,5.81h16.56c.18-2,.34-3.71.51-5.58l5.61-.26-.16-.14.6,6.28h11.36v5.66l-5.45.69v5.34H214.7c.23-2,.42-3.74.6-5.41l4.48-.72v-5.18l-4.85-1c.12-1.93.21-3.53.31-5.12l4.82-.71v-5.67l-.14.14h12.14l-.15-.14v5.69l-5.62.65v11.61h22.62v6.18l.15-.13-4.89.25c-.09,1.79-.17,3.34-.25,4.89Zm-63.73-10.69v16.38h16.41V180.23Z"/>
      <path d="M365.06,238.07h-5v6H348.33c-.13,1.52-.24,2.89-.38,4.56l6.11.69v11.75h-6.14v-5.74h-5.86v5.74h-5.68l-.67-5.81-4.65-.25v12.06H318.92V261.4l5.92-.7V249.28l5.91-.51.32-4.84-.15.14h10.72v-6.14H330.92l.15.13V232.4l-5.93-.7V220.29l-6.06-.53v-4.82l-.15.14h5.67c.24-2,.44-3.78.71-6.15h10.75v5.67l-4.82.72c-.06,1.36-.13,2.75-.21,4.65h10.69c.17,2.06.3,3.66.48,5.8l5.4.25c.23-2,.43-3.7.68-5.8l5.78-.29v12h11Z"/>
      <path d="M196.92,92.93l18.14.14-.14-.14.3,6.08,4.84-.33V92.93l-.14.14h11.92v10.69l5.91.42v5.92H220.11l.16.14c-.18-1.94-.37-3.87-.58-6.13H209.45c-.27-1.67-.48-3.06-.75-4.78h-5.8v10.73l.14-.15h-6.12l.14.15c-.1-1.93-.2-3.86-.29-5.74h-5.85v5.74l.14-.15-4.71.21c-.21,1.79-.41,3.54-.66,5.8h-5.78l.15.14v-6.14h-6.14l.14.14V92.93l-.14.14h11.67c.23,1.85.44,3.58.68,5.61h10.65Z"/>
      <path d="M238.06,244.07h-6v5h-5.94V232.3H220v16.5h-4.62l-.73-4.59-5.73-.29.14.15c-.05-2-.09-4.1-.14-6.15h6.18V220.33l5.06-.72V209.07h5.9l-.14-.14c.1,1.92.19,3.85.29,5.78l5.65.64c.08,1.75.14,3.23.21,4.7h-5.76v5.6h5.62v-5.74h6.13v-11l-.15.13h10.75v5.75l-4.11.33c-1.8,4.37.44,5.21,4.2,4.91l.31,6h-11Z"/>
      <path d="M331.07,243.93H319.2v10.72l-6.14.63v11.79H307.4c-.24-2-.44-3.7-.69-5.78l-4.39-.31c-.21,2-.39,3.73-.62,5.94h-5.78l.14.15V255.32l-6-.7v-5.69l-.14.14,5.74-.29c.27-1.77.48-3.18.71-4.71h5.69l-.14-.14V255l5.14-.38V243.93l-.14.14h5.68c.24-2,.44-3.78.7-6h17.77l-.15-.13v6.14Z"/>
      <path d="M319.08,214.94H307.34c-.23,1.69-.42,3.09-.65,4.8l-4.47.5-.43,5.54-5.67.25V215.29H284.46c-.25,1.32-.55,2.84-.87,4.52h-5.28c-.2-1.46-.39-2.87-.62-4.58l-4.46-.45v-5.57h22.62V191.28h6V208.8h17.05v6.28Z"/>
      <path d="M248.91,186.06h17.72c.22-2,.41-3.77.63-5.78H278V196.8l5.66.36v5.56H273.12V191.36h-11.9c-.14,1.66-.29,3.4-.48,5.62H249.19c-.13,2.1-.23,3.71-.35,5.69l-4.78.39V190.92l-.14.15,4.89-.26c.09-1.79.17-3.34.25-4.88Z"/>
      <path d="M290.05,139.08v-5.71l5.89-.69V122.27l5.83-.48c.07-1.69.15-3.42.25-5.68H290.27v-5.9l5.33-.39c.21-1.73.43-3.47.68-5.51h5.51c.12,1.67.23,3.28.36,5.2l4.65.88v17.38c-2.77.14-6.16,0-4.46,4.77l4.5.86c.1,1.73.19,3.35.3,5.26l5.57.62v5.49H302.37c-.21-1.7-.42-3.44-.72-5.83H289.91Z"/>
      <path d="M324.71,86.76v29H313.22c-.07-1.71-.15-3.42-.24-5.45l5.75-.57V99.18l-5.4-.34V93.22l5.41-.44c.15-1.79.28-3.41.45-5.51l5.68-.37Z"/>
      <path d="M313,161.91H307.1v11.8H296.21v-5.33l5.47-.67v-5.53l-5.32-.34c-.14-1.33-.29-2.73-.47-4.43l5.82-.7c.17-1.72.34-3.46.54-5.45h4.53l.38,5.35,5.74.7v4.75Z"/>
      <path d="M266.93,162.08h17.12l-.14-.14v11.7H273.29c-.17-1.61-.35-3.34-.56-5.41l-5.8-.32.14.14c0-2,0-4.07,0-6.11Z"/>
      <path d="M243.71,86.76c.15,1.81.3,3.63.49,6h10.44v6l-5.14.38c-.28,1.43-.59,3-.92,4.64h-4.22c-.22-1.4-.43-2.81-.69-4.53l-5.44-.51V87.17l5.64-.27Z"/>
      <path d="M331.08,132.94h-6v11.77h-5.89V128.36h11.71v4.72Z"/>
      <path d="M255.16,121.7v-5.42h11.56v11.48h-5.38c-.18-1.61-.38-3.34-.61-5.39Z"/>
      <path d="M231.91,133.06h11.71v11.71l-5.28.24c-.22-2-.4-3.72-.63-5.79l-5.8-.29.15.14v-6.14Z"/>
      <path d="M295.9,93.06h5.7l.69-6h4.76l-.14-.14V98.65H296.05c0-1.9,0-3.82,0-5.74Z"/>
      <path d="M219.93,116.08h11.82c.08,1.86.16,3.57.26,5.61H220.08v-5.75Z"/>
      <path d="M307.22,191.17h5.46v11.55h-5.46Z"/>
      <path d="M290.07,238.06v-5.75h11.84v5.75l.15-.13H289.92Z"/>
      <path d="M231.91,151.06h5.76v10.87h-5.76l.15.14V150.93Z"/>
      <path d="M284.23,156.71h-11v-5.33h10.6c.09,1.9.18,3.7.26,5.49Z"/>
      <path d="M244.24,167.71v-5.34h10.4v5.34Z"/>
      <path d="M284.07,249.06l-.15-11.13,6.15.13-.15-.13v11.14l.14-.14h-6.14Z"/>
      <path d="M248.69,127.73h-4.48V116.32l4.48-.36Z"/>
      <path d="M266.93,167.91v5.74h-5.62v-5.6h5.76Z"/>
      <path d="M202.9,110.06h5.74v5.62h-5.59c0-1.93,0-3.85,0-5.77Z"/>
      <path d="M266.63,208.81h-5.37v-5.59h5.37Z"/>
      <path d="M196.92,109.92v5.74h-5.86v-5.74l-.14.15h6.14Z"/>
      <path d="M312.9,162.06h5.74v5.62h-5.59c0-1.93,0-3.85,0-5.77Z"/>
      <path d="M324.92,80.93h6.14v6.14l-6.34-.31.15.14Q324.89,83.9,324.92,80.93Z"/>
      <path d="M307.05,87.08V81.34h5.62v5.6h-5.76Z"/>
      <path d="M318.92,74.93h6.14v6.14h-6.14Z"/>
      <path d="M255.17,219.77v-4.46h5.55v4.46Z"/>
      <path d="M335.93,115.91v5.76l-4.63.37v-6h4.77Z"/>
      <path d="M301.91,238.06h5v6l.14-.14h-5.14l.14.14v-6.14Z"/>
      <path d="M220.08,115.94H215.2l-.25-5.71h5.31l-.15-.13c-.05,2-.11,4-.18,6Z"/>
      <path d="M319.06,69.93v5.14H313.2c-.11-2-.2-3.59-.28-5.14Z"/>
      <path d="M214.92,86.93h5.14c-.05,2-.09,4.09-.14,6.14l.14-.14h-5.14l.14.14C215,91,215,89,214.92,86.93Z"/>
      <path d="M289.52,190.78H284.3c-.1-1.38-.2-2.77-.33-4.46C287.53,186,291.24,184.7,289.52,190.78Z"/>
      <path d="M284.05,162.08c.06-1.78.11-3.57.18-5.36l-.14.15,5.61.29v4.78h-5.79Z"/>
      <path d="M267.08,161.94h-5.76c-.12-1.53-.24-2.91-.37-4.63h6v4.77Z"/>
      <path d="M243.92,80.93h5.14v5.84h-5.35l.16.14Q243.89,83.9,243.92,80.93Z"/>
      <path d="M295.92,266.92v16.74h-5.73l-.39-5.43-5.4-.27c-.24,2-.45,3.71-.7,5.74h-5.46V273.4l5.83-.75V260.93l-.15.14h5.76c.26,2.25.47,4,.7,6h5.68Z"/>
      <path d="M313.06,296.07h-5.74v5.86h5.74v4.75H302.32V290.27l4.6-.58v-5.76h6.14Z"/>
      <path d="M219.9,313.05h17.84c.09,1.88.17,3.59.27,5.63h-18v-5.77Z"/>
      <path d="M284.07,260.93h-5.76V249.06h5.76l-.15-.13v12.14Z"/>
      <path d="M226.23,301.71h-6v-5.49l5.47-.26c.14,2.11.27,4,.39,5.91Z"/>
      <path d="M231.93,301.91v4.87l-5.71.26v-5.32l-.13.15,6,.18Z"/>
      <path d="M289.92,307.07v-5.14h5.75c.12,1.68.21,3.06.33,4.83Z"/>
      <path d="M157.06,318.93v6.14h-6.14v-6.14Z"/>
      <path d="M162.05,342.08v-5.74h5.62v5.6h-5.76Z"/>
      <path d="M174.06,360.07h-6.14v-6.14h6.14Z"/>
      <path d="M162.06,260.92H151.24c-.09,2-.18,3.69-.27,5.7l5.72.65v5.65H144.92l.14.15V260.93h-6.14l.14.14V255.3l5.65-.66c.25-2,.47-3.78.67-5.45l5.35-.44V238.29h-5.46c-.23,2-.44,3.77-.67,5.78h-5.68v-6h-6c.11-1.93.21-3.86.31-5.76l5.9-.74V220.3h6V232l5.65-.28c.16-2.19.28-3.8.4-5.47l5.71-.64v-5.72H162l-.32-4.87h-4.78v-6.21h-12v-5.93h5.78c.24-2.22.42-3.95.6-5.65l5.61-.66v-5.68l4.79.3c.24,2.09.44,3.82.68,5.84h5.68l-.14-.14v18.15h6.13l-.14-.14.33,4.77,5.47.64.67,5.45,5.43.45c.13,1.92.25,3.65.41,5.84h10.47l.68,5.83h5.69v6.15h6l-.14-.15v4.7l-5.6.65c-.19,1.69-.38,3.42-.61,5.5l-5.78.31v-5.77h-5.6v5.63h5.75c0,2,0,4.08,0,6.13h-11v6l-6.14-.15.14.15v-11.8l5.61-.55V244.07h-5.75v-5.74h-5.85v5.73H168l.33,4.87h5.77c-.11,1.92-.21,3.84-.33,6.21H161.92v5.93Zm-4.88-11.78,4.55-.53V238.32h-4.55Zm10.59-17.32v-5.56H162.3v5.56Z"/>
      <path d="M220.06,261.07H208.92v-5.76h10.84Z"/>
      <circle cx="228.99" cy="345" r="4.34"/>
      <path d="M318.92,318.93h6.14v6.14h-6.14Z"/>
      <path d="M186.2,342v-5.76h4.58v5.44Z"/>
      <path d="M341.67,341.77h-5.44v-5.41h5.44Z"/>
      <path d="M156.92,284.07V278.2l5.14-.27v6.14Z"/>
      <path d="M161.92,278.07q.08-8.58.14-17.15l-.14.15h5.77c.26,2.25.45,4,.68,6h11.69l-.14-.15v6h6.14v11.14h-6.14v-6h-6v-4.75h-5.86v4.75Z"/>
      <path d="M116.06,104.07V93.17H104.24c-.12-2.4-.22-4.32-.32-6.24h24v-6h5.15V93.05H122.32v5.62h10.61V92.91h11.7c.21-1.87.4-3.59.65-5.84h5.78l-.14-.14V99.07l.14-.14H138.92v5.14l.14-.14h-6.14v6.14l.14-.14H121.92l.14.14v-6.14h-6.14Z"/>
      <path d="M80.92,75.07V69.93h5.91V58.32h6.23V75.07Z"/>
      <path d="M110.07,35.06V29.32h11.59v11.6h-5.74l.14.15V34.93h-6.14Z"/>
      <path d="M69.92,70.07V63.93h4.7c.21-1.85.41-3.59.64-5.63h5.8V70.07Z"/>
      <path d="M116.07,45.94H104.34V35.06h5.73l-.15-.13v6.14h6.14l-.14-.15c0,1.72,0,3.44,0,5.16Z"/>
      <path d="M110.08,57.94H99.23L99,52.31h11v5.77Z"/>
      <path d="M128.06,69.93V81.07h-5.75V70.22Z"/>
      <path d="M109.9,17.06h5.74v5.62h-5.59c0-1.93,0-3.85,0-5.77Z"/>
      <path d="M99.06,81.07H92.92V74.93h6.14Z"/>
      <path d="M104.08,69.94H99.32V64.27l4.61-.27v6.08Z"/>
      <path d="M104.06,87.07l-5.14-.28V80.93l5.14.27Z"/>
      <path d="M197.06,86.93v6.14h-5.74V87.22Z"/>
      <path d="M168.07,93.06l-.15-6.13h6v6.14l.14-.14h-6.14Z"/>
      <path d="M132.92,11.93h6.14V23.07h-6.14Z"/>
      <path d="M157.06,80.93l-.15,6.13.15-.13h-6.14l.14.14c-.05-2-.09-4.1-.14-6.14Z"/>
      <path d="M190.78,35v5.76H186.2V35.3Z"/>
      <path d="M226.06,46.07h-6.14V35.35h6.14Z"/>
      <ellipse cx="217.49" cy="17.5" rx="3.63" ry="7.88"/>
      <path d="M202.92,57.93h6.14v6.14h-6.14Z"/>
      <path d="M161.92,93.07h6.15l-.15-.13v11h-6l.14.14V92.93Z"/>
      <path d="M156.91,87.06l5.15-.13c-.05,2-.09,4.09-.14,6.14l.14-.14h-5v-6Z"/>
      <path d="M341.92,208.93h6.14v5.73h-5.85C342.11,212.78,342,210.85,341.92,208.93Z"/>
      <path d="M104.07,238.05V232.4l-5-.75v-5.72l-.15.14,5-.27v-5.86H110l-.26-4.61h-5.67v4.75l-5.13-.15.14.14c-.08-1.55-.17-3.11-.28-5.14H92.92l.14.14-.15-6.14h6v-6h23.15v6.25h16.69v5.63l-5.49.4c-.22,1.72-.39,3.12-.57,4.59H122.39c-.33-1.68-.63-3.21-.88-4.52h-5.19v28.64h11.74c-.07,1.66-.13,3.31-.2,5H116.24v11.8h5.46c.25-2,.46-3.77.67-5.55l5.34-.32v-6.06l5.36.17-.15,12.14.14-.15-4.71.21c-.2,1.79-.4,3.54-.63,5.58h-17.6V238.24l-6.19-.33Z"/>
      <path d="M40.92,267.07v-6.14h4.93V244.07h6.21l-.14-.14v11.14h6.14l-.15-.14v5.66l5.76.68v5.47l-5.61.52v10.81l-12.13-.16.14.14v-4.69l5.61-.64v-5.65Z"/>
      <path d="M63.92,226.07V215.36l-5.85-.66v-5.77l-.15.14h6.14v-6.14l-.14.14H69.6l.69-6h4.77l-.14-.14.3,5.79,5.7.64v11.71l.14-.14-6-.06-.27-5.48H70.22V215l5-.25c-.11,1.79-.21,3.57-.31,5.35l.14-.14-5.14.27v5.87l.14-.15Z"/>
      <path d="M45.92,225.93h5.67l.68-5.61h5.44c.17,1.67.34,3.4.55,5.61h5.8v11.69l-5.84.66q-.16,2.9-.31,5.78l.15-.13H51.92l.14.14v-5.68l-6.14-.72Z"/>
      <path d="M93.06,219.92H87.38l-.7,6H74.92l.14.15v-6.14l-.14.14h5.86c.11-2,.2-3.59.28-5.14l-.14.14H93.06l-.14-.14v5.14Z"/>
      <path d="M81.36,232.19H92.64v5.55l-5.44.5-.4,5.52H81.36Z"/>
      <path d="M74.92,225.92v17.75l-4.86.36V225.92l-.14.15h5.14Z"/>
      <path d="M75.23,249.18h5.44v11.53H75.23Z"/>
      <path d="M139.06,272.92h-6v-12l-.14.15h6.14l-.14-.14v12.14Z"/>
      <path d="M57.91,244.06h5.76v10.87H57.91l.15.14V243.93Z"/>
      <path d="M103.93,237.91v10.73l-4.63.41v-11h4.77Z"/>
      <path d="M93.05,261.08l0-6.14-.15.14h6v6l.14-.15-6.13,0Z"/>
      <path d="M99.07,225.93h-6v-6l-.14.15h6.14l-.14-.14v6.14Z"/>
      <path d="M93.08,254.94H87.33v-5.63h5.6v5.77Z"/>
      <path d="M144.92,277.93h6.14v6.14h-6.14Z"/>
      <path d="M98.9,261.06h4.75v5.67L99,267v-6.08Z"/>
      <path d="M75.08,272.94H70.32v-5.67l4.61-.27v6.08Z"/>
      <path d="M144.92,272.92l.14,5.15h-6v-5.15l-.14.15h6.14Z"/>
      <path d="M115.92,365.07v-5.14h6.14c-.08,1.55-.17,3.1-.28,5.14Z"/>
      <path d="M115.92,307.07c.08-1.55.17-3.11.28-5.14h5.86c-.08,1.55-.17,3.1-.28,5.14Z"/>
      <path d="M52.07,133.06v-4.93H63.92v-6.2H74.68c.23,2.48.41,4.39.58,6.3H70.42l-1,4.63-5.16.33v11.72H70V151l4.61-.26v-5.67H69.9c.11-1.92.21-3.83.32-5.81l4.9-.56V128.1l5.63-.27v-17.6H75.39c-.21,1.64-.43,3.38-.7,5.48l-4.77.32V92.93h11v-12h6.15V99.05H81l.26,4.61h5.67V98.91H98.69l.28,4.82-5.76.49c-.13,1.78-.25,3.4-.4,5.4l-5.48.65v5.79h16.74l-.15-.13.15,6.13H98.92v6l.14-.14-6.13.15v-5.77h-5.6v5.63h5.75l-.38,5.28H81.24V144.7H86.7c.24-2,.46-3.78.69-5.74l5.42.27.41,5.88h10.7v6l.14-.15h-17v10.81H64.23V151.07H51.92l.15-12.14-.15.14,5.74-.29v-5.85H51.92Z"/>
      <path d="M109.9,168.06l.17-6.13-.15.14,12.15-.14V174.1h10.58v6.07H122.07v5.89l-5.8-.29c-.24-2.1-.43-3.82-.66-5.84H98.92l.15.13V167.91h11c0,1.92,0,3.84,0,5.77h5.59v-5.62Z"/>
      <path d="M81.07,191.06l-.15-17.13,6.13.15-.14-.14v6.12H99.07l-.15-.13c0,3.71.09,7.43.14,11.14l-18.14-.14Z"/>
      <path d="M110.07,161.93H93.36l-.46-4.79h10.85c.12-2.38.21-4.3.31-6.22l-.14.15h6.14l-.14-.14v11.14Z"/>
      <path d="M81.06,174.07H63.92v-5.76H80.76Z"/>
      <path d="M87.05,174.08v-5.74h5.62v5.6H86.91Z"/>
      <path d="M34.92,219.93H46.06v6.14H34.92Z"/>
      <path d="M22.92,219.93h6.14v5.73H23.21Z"/>
      <path d="M35.05,238.08v-5.74h5.62v5.6H34.91Z"/>
      <path d="M34.9,244.05h5.76l.37,4.63h-6v-4.77Z"/>
      <path d="M41.08,144.94H35.33v-5.63h5.6v5.77Z"/>
      <path d="M45.92,132.93l6.15.13-.15-.13v6.14l.15-.14H45.92Z"/>
      <path d="M58.07,203.06l-.15-12.13h6v12.14l.14-.14H57.92Z"/>
      <path d="M75.06,197.07v-6h6l-.15-.13v6h-6Z"/>
      <path d="M51.92,202.93l6.15.13-.15-.13v6.14l.15-.14H51.92Z"/>
      <path d="M40.81,186.22v4.46H35.26v-4.46Z"/>
      <path d="M34.92,301.93h11v-6H57.74l.27,5.7-5.78.64-.33,4.79.14-.15H35.22Z"/>
      <path d="M45.93,277.91v5.76H35.32v-5.62H46.07Z"/>
      <path d="M57.93,283.91v5.74H52.31v-5.6h5.76Z"/>
      <path d="M51.9,307.06h5.74v5.62H52.05c0-1.93,0-3.85,0-5.77Z"/>
      <path d="M336.17,190.77v-4.46h5.55v4.46Z"/>
      <path d="M110.08,103.94h-5.76L104,99.31h6v4.77Z"/>
      <path d="M57.92,104.07V92.93h6.14v11.14Z"/>
      <path d="M12.38,12.18H28.69V28.74H12.38Z"/>
      <path d="M12.39,348.18H28.68v16.55H12.39Z"/>
      <path d="M348.1,28.58V12.38h16.55v16.2Z"/>
      <path d="M202.91,161.94v5.83h-6.19l.15.14c.08-1.79.18-3.57.29-5.82h5.89Z"/>
      <path d="M203.05,162.08v-4.75h5.67l.26,4.61h-6.07Z"/>
      <path d="M145.06,203.07H132.92V190.93h12.14Z"/>
      <path d="M150.91,167.93l.15,6.14H138.92V161.93l6.14.14-.14-.14v6.14h6.14Z"/>
      <path d="M150.92,173.93h6.14v17.14h-6.14Z"/>
      <path d="M121.92,191.07v-5.14h10.83c.12,2,.22,3.57.31,5.14Z"/>
      <path d="M132.92,156.93h5.86l.28,5.14H133.2C133.09,160,133,158.48,132.92,156.93Z"/>
      <path d="M121.92,162.07c.08-1.56.17-3.11.28-5.14h5.86c-.08,1.55-.17,3.1-.28,5.14Z"/>
      <path d="M151.06,156.93l-.15,5.13.15-.13h-6.14l.14.14v-5.14Z"/>
      <path d="M168.06,168.07l-17.15-.14.15.14v-6.14l-.15.13,17.15-.13Z"/>
      <ellipse cx="109.99" cy="125" rx="8.58" ry="4.34"/>
      <path d="M209.06,238.07h-6.14V208.93h6.14Z"/>
      <path d="M174.05,215.08v-5.74h5.62v5.6h-5.76Z"/>
      <path d="M185.15,186.2h5.55c.09,1.4.18,2.8.29,4.54-1.41.08-3,.62-3.53.09C186.49,189.9,186.14,188.32,185.15,186.2Z"/>
      <ellipse cx="110.49" cy="194" rx="16.36" ry="4.34"/>
      <path d="M121.92,203.07v-6.14h5.74v5.85Z"/>
      <path d="M128.23,237.72h-6v-5.5l5.48-.26c.13,2.11.26,4,.38,5.91Z"/>
      <path d="M133.06,244.07h-5.14l.3-6.35s-.14.16-.13.15l5,.06Z"/>
      <path d="M157.06,214.93v5.14h-5.75l-.33-4.84Z"/>
      <path d="M173.92,249.07v-5.14h6.14l-.28,5.14Z"/>
      <path d="M132.92,249.07v-5.14h6.14c-.08,1.55-.17,3.1-.28,5.14Z"/>
      <path d="M99.06,203.07H92.92v-6.14h6.14Z"/>
      <path d="M93.06,202.93v6.14H87.32v-5.85Z"/>
    </g>
  </g>
</svg>
